<svg xmlns="http://www.w3.org/2000/svg" width="1111.5419921875" height="640.1390380859375" viewBox="-735.7117919921875 -145.00653076171875 1111.5419921875 640.1390380859375"><title>Neo4j Graph Visualization</title><desc>Created using Neo4j (http://www.neo4j.com/)</desc><g class="layer relationships"><g class="relationship" transform="translate(-528.3540077559232 -33.85414865375597) rotate(471.2644146257225)"><path class="outline" fill="#F16667" stroke="none" d="M 38.24880448390895,-11.801650543534432 L 39.025261619216515,-8.903873064667227 A 310.52749295879624 310.52749295879624 0 0 1 86.45742846888379,-17.732986059849907 L 86.13921256430643,-20.71606142565514 A 313.52749295879624 313.52749295879624 0 0 0 38.24880448390895,-11.801650543534432 Z M 146.8556925328968,-21.279996953187208 L 146.5929404394629,-18.291525548372363 A 310.52749295879624 310.52749295879624 0 0 1 194.18092002000566,-10.344961021595878 L 193.45842139211408,-7.43326122032948 L 203.27726873775066,-9.633315038554352 L 195.62591727578882,-16.168360624128677 L 194.90341864789724,-13.25666082286228 A 313.52749295879624 313.52749295879624 0 0 0 146.8556925328968,-21.279996953187208"/><text text-anchor="middle" pointer-events="none" font-size="8px" fill="#000000" x="116.49770004062387" y="-17.97138280224135" transform="rotate(180 116.49770004062387 -20.97138280224135)" font-family="sans-serif">CANT_TOUCH</text></g><g class="relationship" transform="translate(-280.63721253933977 -101.00652058482689) rotate(498.8925564297632)"><path class="outline" fill="#F16667" stroke="none" d="M 40 1.5 L 187.88565218017683 1.5 L 187.88565218017683 -1.5 L 40 -1.5 Z M 248.40908968017683 1.5 L 396.29474186035367 1.5 L 396.29474186035367 4.5 L 405.29474186035367 0 L 396.29474186035367 -4.5 L 396.29474186035367 -1.5 L 248.40908968017683 -1.5 Z"/><text text-anchor="middle" pointer-events="none" font-size="8px" fill="#000000" x="218.14737093017683" y="3" transform="rotate(180 218.14737093017683 0)" font-family="sans-serif">CANT_TOUCH</text></g><g class="relationship" transform="translate(62.27477836655936 439.1685717106361) rotate(284.3620241695043)"><path class="outline" fill="#F16667" stroke="none" d="M 40 1.5 L 98.37379105696706 1.5 L 98.37379105696706 -1.5 L 40 -1.5 Z M 158.89722855696706 1.5 L 217.27101961393413 1.5 L 217.27101961393413 4.5 L 226.27101961393413 0 L 217.27101961393413 -4.5 L 217.27101961393413 -1.5 L 158.89722855696706 -1.5 Z"/><text text-anchor="middle" pointer-events="none" font-size="8px" fill="#000000" x="128.63550980696706" y="3" font-family="sans-serif">CANT_TOUCH</text></g><g class="relationship" transform="translate(331.8302302569705 207.66023739641736) rotate(220.601509323622)"><path class="outline" fill="#F16667" stroke="none" d="M 40 1.5 L 197.4304359699123 1.5 L 197.4304359699123 -1.5 L 40 -1.5 Z M 257.9538734699123 1.5 L 415.3843094398246 1.5 L 415.3843094398246 4.5 L 424.3843094398246 0 L 415.3843094398246 -4.5 L 415.3843094398246 -1.5 L 257.9538734699123 -1.5 Z"/><text text-anchor="middle" pointer-events="none" font-size="8px" fill="#000000" x="227.6921547199123" y="3" transform="rotate(180 227.6921547199123 0)" font-family="sans-serif">CANT_TOUCH</text></g><g class="relationship" transform="translate(-616.1569965494948 191.76281125554522) rotate(291.2644146257225)"><path class="outline" fill="#F16667" stroke="none" d="M 38.24880448390895,-11.801650543534432 L 39.025261619216515,-8.903873064667227 A 310.52749295879624 310.52749295879624 0 0 1 86.45742846888379,-17.732986059849907 L 86.13921256430643,-20.71606142565514 A 313.52749295879624 313.52749295879624 0 0 0 38.24880448390895,-11.801650543534432 Z M 146.8556925328968,-21.279996953187208 L 146.5929404394629,-18.291525548372363 A 310.52749295879624 310.52749295879624 0 0 1 194.18092002000566,-10.344961021595878 L 193.45842139211408,-7.43326122032948 L 203.27726873775066,-9.633315038554352 L 195.62591727578882,-16.168360624128677 L 194.90341864789724,-13.25666082286228 A 313.52749295879624 313.52749295879624 0 0 0 146.8556925328968,-21.279996953187208"/><text text-anchor="middle" pointer-events="none" font-size="8px" fill="#000000" x="116.49770004062387" y="-17.97138280224135" font-family="sans-serif">CANT_TOUCH</text></g><g class="relationship" transform="translate(253.3641873229476 -46.97499490627138) rotate(432.8732779857458)"><path class="outline" fill="#F16667" stroke="none" d="M 38.24880448390895,11.801650543534432 L 39.025261619216515,8.903873064667227 A 358.1538583167814 358.1538583167814 0 0 0 98.60212204160221,19.57299211179219 L 98.3246978696896,22.560137208508877 A 361.1538583167814 361.1538583167814 0 0 1 38.24880448390895,11.801650543534432 Z M 159.0266961788972,23.074040612608485 L 158.79988651602162,20.082626669867295 A 358.1538583167814 358.1538583167814 0 0 0 218.5488440952928,10.423720560966458 L 217.82155993360763,7.51321240118372 L 227.6440106554836,9.697122155802312 L 220.00341241866315,16.24473688053193 L 219.27612825697798,13.334228720749195 A 361.1538583167814 361.1538583167814 0 0 1 159.0266961788972,23.074040612608485"/><text text-anchor="middle" pointer-events="none" font-size="8px" fill="#000000" x="128.67757907765292" y="25.594781763074423" font-family="sans-serif">CANT_TOUCH</text></g><g class="relationship" transform="translate(-465.3980193904646 451.1324793780727) rotate(303.5526554719221)"><path class="outline" fill="#F16667" stroke="none" d="M 38.24880448390895,-11.801650543534432 L 39.025261619216515,-8.903873064667227 A 467.11175708763284 467.11175708763284 0 0 1 126.49946275091,-23.623021075043596 L 126.28480394204843,-26.61533148604343 A 470.11175708763284 470.11175708763284 0 0 0 38.24880448390895,-11.801650543534432 Z M 186.95827935371597,-27.04228293872376 L 186.78575272530486,-24.047247953537635 A 467.11175708763284 467.11175708763284 0 0 1 274.45843451812505,-10.560586059865345 L 273.722834831955,-7.65216843137617 L 283.55148724667754,-9.80799581559993 L 275.929633890465,-16.377421316843694 L 275.194034204295,-13.46900368835452 A 470.11175708763284 470.11175708763284 0 0 0 186.95827935371597,-27.04228293872376"/><text text-anchor="middle" pointer-events="none" font-size="8px" fill="#000000" x="156.6252014460943" y="-23.30871839329103" font-family="sans-serif">CANT_TOUCH</text></g><g class="relationship" transform="translate(-181.49829259232055 314.23816355848805) rotate(310.114818456252)"><path class="outline" fill="#F16667" stroke="none" d="M 38.24880448390895,-11.801650543534432 L 39.025261619216515,-8.903873064667227 A 201.6165689613763 201.6165689613763 0 0 1 58.905657807773764,-13.169367060136068 L 58.42501558923079,-16.130613935652207 A 204.6165689613763 204.6165689613763 0 0 0 38.24880448390895,-11.801650543534432 Z M 119.1657871404727,-16.854712872924523 L 118.7558743292902,-13.882849570679895 A 201.6165689613763 201.6165689613763 0 0 1 138.7323053857096,-10.092494193211435 L 138.02514868491036,-7.177030353525761 L 147.83227525516625,-9.42875601065655 L 140.14661878730809,-15.923421872582782 L 139.43946208650885,-13.00795803289711 A 204.6165689613763 204.6165689613763 0 0 0 119.1657871404727,-16.854712872924523"/><text text-anchor="middle" pointer-events="none" font-size="8px" fill="#000000" x="88.78626147364987" y="-14.25935979744645" font-family="sans-serif">CANT_TOUCH</text></g><g class="relationship" transform="translate(-616.1569965494948 191.76281125554522) rotate(445.54852998758406)"><path class="outline" fill="#8DCC93" stroke="none" d="M 12.767576369823502 37.98998543880643 L 23.120338173924335 76.62701849036915 A 23.935935394489817 23.935935394489817 0 1 1 -23.120338173924335 76.62701849036915 L -15.614585865951227 48.61516952798618 L -7.887179255638683 50.68572188880635 L -10.352761804100831 38.63703305156273 L -18.512363344818432 47.83871239267862 L -10.784956734505888 49.90926475349878 L -18.29070904247899 77.92111371588176 A 18.935935394489817 18.935935394489817 0 1 0 18.29070904247899 77.92111371588176 L 7.93794723837816 39.28408066431903 Z"/><text text-anchor="middle" pointer-events="none" font-size="8px" fill="#000000" x="0" y="115.75802982729645" font-family="sans-serif">BEATS</text></g><g class="relationship" transform="translate(-616.1569965494948 191.76281125554522) rotate(419.83264534944567)"><path class="outline" fill="#8DCC93" stroke="none" d="M 40 2.5 L 128.68238556983937 2.5 L 128.68238556983937 -2.5 L 40 -2.5 Z M 160.31910431983937 2.5 L 249.00148988967874 2.5 L 249.00148988967874 5.5 L 260.00148988967874 0 L 249.00148988967874 -5.5 L 249.00148988967874 -2.5 L 160.31910431983937 -2.5 Z"/><text text-anchor="middle" pointer-events="none" font-size="8px" fill="#000000" x="144.50074494483937" y="3" font-family="sans-serif">BEATS</text></g><g class="relationship" transform="translate(-280.63721253933977 -101.00652058482689) rotate(451.33513008705125)"><path class="outline" fill="#8DCC93" stroke="none" d="M 40 2.5 L 120.47807167916534 2.5 L 120.47807167916534 -2.5 L 40 -2.5 Z M 152.11479042916534 2.5 L 232.59286210833068 2.5 L 232.59286210833068 5.5 L 243.59286210833068 0 L 232.59286210833068 -5.5 L 232.59286210833068 -2.5 L 152.11479042916534 -2.5 Z"/><text text-anchor="middle" pointer-events="none" font-size="8px" fill="#000000" x="136.29643105416534" y="3" transform="rotate(180 136.29643105416534 0)" font-family="sans-serif">BEATS</text></g><g class="relationship" transform="translate(-280.63721253933977 -101.00652058482689) rotate(394.609782289537)"><path class="outline" fill="#8DCC93" stroke="none" d="M 40 2.5 L 227.1265766346221 2.5 L 227.1265766346221 -2.5 L 40 -2.5 Z M 258.7632953846221 2.5 L 445.8898720192442 2.5 L 445.8898720192442 5.5 L 456.8898720192442 0 L 445.8898720192442 -5.5 L 445.8898720192442 -2.5 L 258.7632953846221 -2.5 Z"/><text text-anchor="middle" pointer-events="none" font-size="8px" fill="#000000" x="242.9449360096221" y="3" font-family="sans-serif">BEATS</text></g><g class="relationship" transform="translate(-280.63721253933977 -101.00652058482689) rotate(524.8324848641585)"><path class="outline" fill="#8DCC93" stroke="none" d="M 40 2.5 L 107.01037054190485 2.5 L 107.01037054190485 -2.5 L 40 -2.5 Z M 138.64708929190485 2.5 L 205.6574598338097 2.5 L 205.6574598338097 5.5 L 216.6574598338097 0 L 205.6574598338097 -5.5 L 205.6574598338097 -2.5 L 138.64708929190485 -2.5 Z"/><text text-anchor="middle" pointer-events="none" font-size="8px" fill="#000000" x="122.82872991690485" y="3" transform="rotate(180 122.82872991690485 0)" font-family="sans-serif">BEATS</text></g><g class="relationship" transform="translate(62.27477836655936 439.1685717106361) rotate(245.23992428524565)"><path class="outline" fill="#8DCC93" stroke="none" d="M 40 2.5 L 126.08998118084716 2.5 L 126.08998118084716 -2.5 L 40 -2.5 Z M 157.72669993084716 2.5 L 243.81668111169432 2.5 L 243.81668111169432 5.5 L 254.81668111169432 0 L 243.81668111169432 -5.5 L 243.81668111169432 -2.5 L 157.72669993084716 -2.5 Z"/><text text-anchor="middle" pointer-events="none" font-size="8px" fill="#000000" x="141.90834055584716" y="3" transform="rotate(180 141.90834055584716 0)" font-family="sans-serif">BEATS</text></g><g class="relationship" transform="translate(128.32273296253885 181.21911235874774) rotate(182.94938174165395)"><path class="outline" fill="#8DCC93" stroke="none" d="M 40 2.5 L 73.56878465671215 2.5 L 73.56878465671215 -2.5 L 40 -2.5 Z M 105.20550340671215 2.5 L 138.7742880634243 2.5 L 138.7742880634243 5.5 L 149.7742880634243 0 L 138.7742880634243 -5.5 L 138.7742880634243 -2.5 L 105.20550340671215 -2.5 Z"/><text text-anchor="middle" pointer-events="none" font-size="8px" fill="#000000" x="89.38714403171215" y="3" transform="rotate(180 89.38714403171215 0)" font-family="sans-serif">BEATS</text></g><g class="relationship" transform="translate(331.8302302569705 207.66023739641736) rotate(187.40280079139154)"><path class="outline" fill="#8DCC93" stroke="none" d="M 40 2.5 L 81.29064918212033 2.5 L 81.29064918212033 -2.5 L 40 -2.5 Z M 112.92736793212033 2.5 L 154.21801711424067 2.5 L 154.21801711424067 5.5 L 165.21801711424067 0 L 154.21801711424067 -5.5 L 154.21801711424067 -2.5 L 112.92736793212033 -2.5 Z"/><text text-anchor="middle" pointer-events="none" font-size="8px" fill="#000000" x="97.10900855712033" y="3" transform="rotate(180 97.10900855712033 0)" font-family="sans-serif">BEATS</text></g><g class="relationship" transform="translate(331.8302302569705 207.66023739641736) rotate(499.34228949776104)"><path class="outline" fill="#8DCC93" stroke="none" d="M 40 2.5 L 156.34441845197466 2.5 L 156.34441845197466 -2.5 L 40 -2.5 Z M 187.98113720197466 2.5 L 304.3255556539493 2.5 L 304.3255556539493 5.5 L 315.3255556539493 0 L 304.3255556539493 -5.5 L 304.3255556539493 -2.5 L 187.98113720197466 -2.5 Z"/><text text-anchor="middle" pointer-events="none" font-size="8px" fill="#000000" x="172.16277782697466" y="3" transform="rotate(180 172.16277782697466 0)" font-family="sans-serif">BEATS</text></g><g class="relationship" transform="translate(331.8302302569705 207.66023739641736) rotate(252.8732779857458)"><path class="outline" fill="#8DCC93" stroke="none" d="M 37.98998543880643,12.7675763698235 L 39.284080664319035,7.937947238378159 A 355.7037956761603 355.7037956761603 0 0 0 111.99380262685726,19.531383936410293 L 111.72176174608849,24.523977827284114 A 360.7037956761603 360.7037956761603 0 0 1 37.98998543880643,12.7675763698235 Z M 143.5672471870969,24.85119638539709 L 143.39785265988345,19.854066659829584 A 355.7037956761603 355.7037956761603 0 0 0 216.3304473964657,9.757133099072448 L 215.6136983679571,6.8440126363843685 L 227.60917995007915,9.556653713447721 L 218.24177813915526,17.525454332907323 L 217.52502911064667,14.612333870219246 A 360.7037956761603 360.7037956761603 0 0 1 143.5672471870969,24.85119638539709"/><text text-anchor="middle" pointer-events="none" font-size="8px" fill="#000000" x="127.66657799870347" y="25.539352148276805" transform="rotate(180 127.66657799870347 22.539352148276805)" font-family="sans-serif">BEATS</text></g><g class="relationship" transform="translate(-20.755490355080262 -94.55838624280133) rotate(181.42132002952246)"><path class="outline" fill="#8DCC93" stroke="none" d="M 40 2.5 L 108.66249302444905 2.5 L 108.66249302444905 -2.5 L 40 -2.5 Z M 140.29921177444905 2.5 L 208.9617047988981 2.5 L 208.9617047988981 5.5 L 219.9617047988981 0 L 208.9617047988981 -5.5 L 208.9617047988981 -2.5 L 140.29921177444905 -2.5 Z"/><text text-anchor="middle" pointer-events="none" font-size="8px" fill="#000000" x="124.48085239944905" y="3" transform="rotate(180 124.48085239944905 0)" font-family="sans-serif">BEATS</text></g><g class="relationship" transform="translate(253.3641873229476 -46.97499490627138) rotate(189.84762858833005)"><path class="outline" fill="#8DCC93" stroke="none" d="M 40 2.5 L 117.79110904950306 2.5 L 117.79110904950306 -2.5 L 40 -2.5 Z M 149.42782779950306 2.5 L 227.21893684900613 2.5 L 227.21893684900613 5.5 L 238.21893684900613 0 L 227.21893684900613 -5.5 L 227.21893684900613 -2.5 L 149.42782779950306 -2.5 Z"/><text text-anchor="middle" pointer-events="none" font-size="8px" fill="#000000" x="133.60946842450306" y="3" transform="rotate(180 133.60946842450306 0)" font-family="sans-serif">BEATS</text></g><g class="relationship" transform="translate(-465.3980193904646 451.1324793780727) rotate(358.7011572424184)"><path class="outline" fill="#8DCC93" stroke="none" d="M 40 2.5 L 242.5858451099798 2.5 L 242.5858451099798 -2.5 L 40 -2.5 Z M 274.2225638599798 2.5 L 476.8084089699596 2.5 L 476.8084089699596 5.5 L 487.8084089699596 0 L 476.8084089699596 -5.5 L 476.8084089699596 -2.5 L 274.2225638599798 -2.5 Z"/><text text-anchor="middle" pointer-events="none" font-size="8px" fill="#000000" x="258.4042044849798" y="3" font-family="sans-serif">BEATS</text></g><g class="relationship" transform="translate(-465.3980193904646 451.1324793780727) rotate(288.5016500929605)"><path class="outline" fill="#8DCC93" stroke="none" d="M 40 2.5 L 269.79761022659596 2.5 L 269.79761022659596 -2.5 L 40 -2.5 Z M 301.43432897659596 2.5 L 531.2319392031919 2.5 L 531.2319392031919 5.5 L 542.2319392031919 0 L 531.2319392031919 -5.5 L 531.2319392031919 -2.5 L 301.43432897659596 -2.5 Z"/><text text-anchor="middle" pointer-events="none" font-size="8px" fill="#000000" x="285.61596960159596" y="3" font-family="sans-serif">BEATS</text></g><g class="relationship" transform="translate(-287.24501332918584 182.50934917825418) rotate(538.3884913392288)"><path class="outline" fill="#8DCC93" stroke="none" d="M 40 2.5 L 143.2027025489469 2.5 L 143.2027025489469 -2.5 L 40 -2.5 Z M 174.8394212989469 2.5 L 278.0421238478938 2.5 L 278.0421238478938 5.5 L 289.0421238478938 0 L 278.0421238478938 -5.5 L 278.0421238478938 -2.5 L 174.8394212989469 -2.5 Z"/><text text-anchor="middle" pointer-events="none" font-size="8px" fill="#000000" x="159.0210619239469" y="3" transform="rotate(180 159.0210619239469 0)" font-family="sans-serif">BEATS</text></g><g class="relationship" transform="translate(-287.24501332918584 182.50934917825418) rotate(483.5526554719221)"><path class="outline" fill="#8DCC93" stroke="none" d="M 37.98998543880643,-12.7675763698235 L 39.284080664319035,-7.937947238378159 A 464.9130791356023 464.9130791356023 0 0 1 139.9093450478938,-23.36177837551071 L 139.69744420343264,-28.35728616072305 A 469.9130791356023 469.9130791356023 0 0 0 37.98998543880643,-12.7675763698235 Z M 171.49614137145363,-28.629187880141046 L 171.369695630345,-23.63078698840019 A 464.9130791356023 464.9130791356023 0 0 1 272.24399710230847,-9.92992198816972 L 271.5172060377302,-7.0192906565770015 L 283.52197120529695,-9.690547527710038 L 274.18210660785047,-17.691605539083636 L 273.4553155432722,-14.780974207490917 A 469.9130791356023 469.9130791356023 0 0 0 171.49614137145363,-28.629187880141046"/><text text-anchor="middle" pointer-events="none" font-size="8px" fill="#000000" x="155.61586813492582" y="-23.262389789032397" transform="rotate(180 155.61586813492582 -26.262389789032397)" font-family="sans-serif">BEATS</text></g><g class="relationship" transform="translate(-181.49829259232055 314.23816355848805) rotate(400.114818456252)"><path class="outline" fill="#8DCC93" stroke="none" d="M 12.767576369823502 37.98998543880643 L 23.120338173924335 76.62701849036915 A 23.935935394489817 23.935935394489817 0 1 1 -23.120338173924335 76.62701849036915 L -15.614585865951227 48.61516952798618 L -7.887179255638683 50.68572188880635 L -10.352761804100831 38.63703305156273 L -18.512363344818432 47.83871239267862 L -10.784956734505888 49.90926475349878 L -18.29070904247899 77.92111371588176 A 18.935935394489817 18.935935394489817 0 1 0 18.29070904247899 77.92111371588176 L 7.93794723837816 39.28408066431903 Z"/><text text-anchor="middle" pointer-events="none" font-size="8px" fill="#000000" x="0" y="115.75802982729645" font-family="sans-serif">BEATS</text></g><g class="relationship" transform="translate(-61.200176570585626 171.45452470341522) rotate(231.15242535505644)"><path class="outline" fill="#8DCC93" stroke="none" d="M 40 2.5 L 153.6013607499146 2.5 L 153.6013607499146 -2.5 L 40 -2.5 Z M 185.2380794999146 2.5 L 298.8394402498292 2.5 L 298.8394402498292 5.5 L 309.8394402498292 0 L 298.8394402498292 -5.5 L 298.8394402498292 -2.5 L 185.2380794999146 -2.5 Z"/><text text-anchor="middle" pointer-events="none" font-size="8px" fill="#000000" x="169.4197201249146" y="3" transform="rotate(180 169.4197201249146 0)" font-family="sans-serif">BEATS</text></g><g class="relationship" transform="translate(-61.200176570585626 171.45452470341522) rotate(490.114818456252)"><path class="outline" fill="#8DCC93" stroke="none" d="M 37.98998543880643,-12.7675763698235 L 39.284080664319035,-7.937947238378159 A 198.54715427598418 198.54715427598418 0 0 1 72.21253593571869,-13.843314531268874 L 71.74767584559434,-18.821658141005912 A 203.54715427598418 203.54715427598418 0 0 0 37.98998543880643,-12.7675763698235 Z M 103.74142720440334,-19.28325227566239 L 103.4203821446225,-14.293569914069593 A 198.54715427598418 198.54715427598418 0 0 1 136.50549720996128,-9.340622252544867 L 135.81296200085322,-6.42165068979444 L 147.78550561430288,-9.233802788107365 L 138.35225776758276,-17.124546419879337 L 137.6597225584747,-14.20557485712891 A 203.54715427598418 203.54715427598418 0 0 0 103.74142720440334,-19.28325227566239"/><text text-anchor="middle" pointer-events="none" font-size="8px" fill="#000000" x="87.77153263074065" y="-14.182356080814458" transform="rotate(180 87.77153263074065 -17.182356080814458)" font-family="sans-serif">BEATS</text></g><g class="relationship" transform="translate(-61.200176570585626 171.45452470341522) rotate(537.2001548646715)"><path class="outline" fill="#8DCC93" stroke="none" d="M 40 2.5 L 91.83913857519298 2.5 L 91.83913857519298 -2.5 L 40 -2.5 Z M 123.47585732519298 2.5 L 175.31499590038595 2.5 L 175.31499590038595 5.5 L 186.31499590038595 0 L 175.31499590038595 -5.5 L 175.31499590038595 -2.5 L 123.47585732519298 -2.5 Z"/><text text-anchor="middle" pointer-events="none" font-size="8px" fill="#000000" x="107.65749795019298" y="3" transform="rotate(180 107.65749795019298 0)" font-family="sans-serif">BEATS</text></g></g><g class="layer nodes"><g class="node" transform="translate(-528.3540077559232,-33.85414865375597)"><circle class="outline" cx="0" cy="0" r="40" fill="#D9C8AE" stroke="#c0a378" stroke-width="2px"/><text text-anchor="middle" pointer-events="none" font-family="sans-serif" dy="2.5" font-size="40" fill="#604A0E"/><pattern id="img-fill-249" patternUnits="userSpaceOnUse" x="-39" y="-39" height="156" width="156"><image xmlns:xlink="http://www.w3.org/1999/xlink" xlink:href="https://github.com/DinkleMinded/pokemon-gen6-type-advantage/raw/master/types/Normal.png" x="0" y="0" type="image/png" height="78" width="78"/></pattern><circle class="filled" cx="0" cy="0" r="39" fill="url(#img-fill-249)"/><text text-anchor="middle" pointer-events="none" y="5" font-size="10px" fill="#604A0E" font-family="sans-serif"> Normal</text></g><g class="node" transform="translate(-616.1569965494948,191.76281125554522)"><circle class="outline" cx="0" cy="0" r="40" fill="#D9C8AE" stroke="#c0a378" stroke-width="2px"/><text text-anchor="middle" pointer-events="none" font-family="sans-serif" dy="2.5" font-size="40" fill="#604A0E"/><pattern id="img-fill-298" patternUnits="userSpaceOnUse" x="-39" y="-39" height="156" width="156"><image xmlns:xlink="http://www.w3.org/1999/xlink" xlink:href="https://github.com/DinkleMinded/pokemon-gen6-type-advantage/raw/master/types/Ghost.png" x="0" y="0" type="image/png" height="78" width="78"/></pattern><circle class="filled" cx="0" cy="0" r="39" fill="url(#img-fill-298)"/><text text-anchor="middle" pointer-events="none" y="5" font-size="10px" fill="#604A0E" font-family="sans-serif"> Ghost</text></g><g class="node" transform="translate(-280.63721253933977,-101.00652058482689)"><circle class="outline" cx="0" cy="0" r="40" fill="#D9C8AE" stroke="#c0a378" stroke-width="2px"/><text text-anchor="middle" pointer-events="none" font-family="sans-serif" dy="2.5" font-size="40" fill="#604A0E"/><pattern id="img-fill-256" patternUnits="userSpaceOnUse" x="-39" y="-39" height="156" width="156"><image xmlns:xlink="http://www.w3.org/1999/xlink" xlink:href="https://github.com/DinkleMinded/pokemon-gen6-type-advantage/raw/master/types/Fighting.png" x="0" y="0" type="image/png" height="78" width="78"/></pattern><circle class="filled" cx="0" cy="0" r="39" fill="url(#img-fill-256)"/><text text-anchor="middle" pointer-events="none" y="5" font-size="10px" fill="#604A0E" font-family="sans-serif"> Fighting</text></g><g class="node" transform="translate(62.27477836655936,439.1685717106361)"><circle class="outline" cx="0" cy="0" r="40" fill="#D9C8AE" stroke="#c0a378" stroke-width="2px"/><text text-anchor="middle" pointer-events="none" font-family="sans-serif" dy="2.5" font-size="40" fill="#604A0E"/><pattern id="img-fill-270" patternUnits="userSpaceOnUse" x="-39" y="-39" height="156" width="156"><image xmlns:xlink="http://www.w3.org/1999/xlink" xlink:href="https://github.com/DinkleMinded/pokemon-gen6-type-advantage/raw/master/types/Poison.png" x="0" y="0" type="image/png" height="78" width="78"/></pattern><circle class="filled" cx="0" cy="0" r="39" fill="url(#img-fill-270)"/><text text-anchor="middle" pointer-events="none" y="5" font-size="10px" fill="#604A0E" font-family="sans-serif"> Poison</text></g><g class="node" transform="translate(128.32273296253885,181.21911235874774)"><circle class="outline" cx="0" cy="0" r="40" fill="#D9C8AE" stroke="#c0a378" stroke-width="2px"/><text text-anchor="middle" pointer-events="none" font-family="sans-serif" dy="2.5" font-size="40" fill="#604A0E"/><pattern id="img-fill-305" patternUnits="userSpaceOnUse" x="-39" y="-39" height="156" width="156"><image xmlns:xlink="http://www.w3.org/1999/xlink" xlink:href="https://github.com/DinkleMinded/pokemon-gen6-type-advantage/raw/master/types/Steel.png" x="0" y="0" type="image/png" height="78" width="78"/></pattern><circle class="filled" cx="0" cy="0" r="39" fill="url(#img-fill-305)"/><text text-anchor="middle" pointer-events="none" y="5" font-size="10px" fill="#604A0E" font-family="sans-serif"> Steel</text></g><g class="node" transform="translate(331.8302302569705,207.66023739641736)"><circle class="outline" cx="0" cy="0" r="40" fill="#D9C8AE" stroke="#c0a378" stroke-width="2px"/><text text-anchor="middle" pointer-events="none" font-family="sans-serif" dy="2.5" font-size="40" fill="#604A0E"/><pattern id="img-fill-277" patternUnits="userSpaceOnUse" x="-39" y="-39" height="156" width="156"><image xmlns:xlink="http://www.w3.org/1999/xlink" xlink:href="https://github.com/DinkleMinded/pokemon-gen6-type-advantage/raw/master/types/Ground.png" x="0" y="0" type="image/png" height="78" width="78"/></pattern><circle class="filled" cx="0" cy="0" r="39" fill="url(#img-fill-277)"/><text text-anchor="middle" pointer-events="none" y="5" font-size="10px" fill="#604A0E" font-family="sans-serif"> Ground</text></g><g class="node" transform="translate(-20.755490355080262,-94.55838624280133)"><circle class="outline" cx="0" cy="0" r="40" fill="#D9C8AE" stroke="#c0a378" stroke-width="2px"/><text text-anchor="middle" pointer-events="none" font-family="sans-serif" dy="2.5" font-size="40" fill="#604A0E"/><pattern id="img-fill-263" patternUnits="userSpaceOnUse" x="-39" y="-39" height="156" width="156"><image xmlns:xlink="http://www.w3.org/1999/xlink" xlink:href="https://github.com/DinkleMinded/pokemon-gen6-type-advantage/raw/master/types/Flying.png" x="0" y="0" type="image/png" height="78" width="78"/></pattern><circle class="filled" cx="0" cy="0" r="39" fill="url(#img-fill-263)"/><text text-anchor="middle" pointer-events="none" y="5" font-size="10px" fill="#604A0E" font-family="sans-serif"> Flying</text></g><g class="node" transform="translate(253.3641873229476,-46.97499490627138)"><circle class="outline" cx="0" cy="0" r="40" fill="#D9C8AE" stroke="#c0a378" stroke-width="2px"/><text text-anchor="middle" pointer-events="none" font-family="sans-serif" dy="2.5" font-size="40" fill="#604A0E"/><pattern id="img-fill-333" patternUnits="userSpaceOnUse" x="-39" y="-39" height="156" width="156"><image xmlns:xlink="http://www.w3.org/1999/xlink" xlink:href="https://github.com/DinkleMinded/pokemon-gen6-type-advantage/raw/master/types/Electric.png" x="0" y="0" type="image/png" height="78" width="78"/></pattern><circle class="filled" cx="0" cy="0" r="39" fill="url(#img-fill-333)"/><text text-anchor="middle" pointer-events="none" y="5" font-size="10px" fill="#604A0E" font-family="sans-serif"> Electric</text></g><g class="node" transform="translate(-465.3980193904646,451.1324793780727)"><circle class="outline" cx="0" cy="0" r="40" fill="#D9C8AE" stroke="#c0a378" stroke-width="2px"/><text text-anchor="middle" pointer-events="none" font-family="sans-serif" dy="2.5" font-size="40" fill="#604A0E"/><pattern id="img-fill-340" patternUnits="userSpaceOnUse" x="-39" y="-39" height="156" width="156"><image xmlns:xlink="http://www.w3.org/1999/xlink" xlink:href="https://github.com/DinkleMinded/pokemon-gen6-type-advantage/raw/master/types/Psychic.png" x="0" y="0" type="image/png" height="78" width="78"/></pattern><circle class="filled" cx="0" cy="0" r="39" fill="url(#img-fill-340)"/><text text-anchor="middle" pointer-events="none" y="5" font-size="10px" fill="#604A0E" font-family="sans-serif"> Psychic</text></g><g class="node" transform="translate(-287.24501332918584,182.50934917825418)"><circle class="outline" cx="0" cy="0" r="40" fill="#D9C8AE" stroke="#c0a378" stroke-width="2px"/><text text-anchor="middle" pointer-events="none" font-family="sans-serif" dy="2.5" font-size="40" fill="#604A0E"/><pattern id="img-fill-361" patternUnits="userSpaceOnUse" x="-39" y="-39" height="156" width="156"><image xmlns:xlink="http://www.w3.org/1999/xlink" xlink:href="https://github.com/DinkleMinded/pokemon-gen6-type-advantage/raw/master/types/Dark.png" x="0" y="0" type="image/png" height="78" width="78"/></pattern><circle class="filled" cx="0" cy="0" r="39" fill="url(#img-fill-361)"/><text text-anchor="middle" pointer-events="none" y="5" font-size="10px" fill="#604A0E" font-family="sans-serif"> Dark</text></g><g class="node" transform="translate(-181.49829259232055,314.23816355848805)"><circle class="outline" cx="0" cy="0" r="40" fill="#D9C8AE" stroke="#c0a378" stroke-width="2px"/><text text-anchor="middle" pointer-events="none" font-family="sans-serif" dy="2.5" font-size="40" fill="#604A0E"/><pattern id="img-fill-354" patternUnits="userSpaceOnUse" x="-39" y="-39" height="156" width="156"><image xmlns:xlink="http://www.w3.org/1999/xlink" xlink:href="https://github.com/DinkleMinded/pokemon-gen6-type-advantage/raw/master/types/Dragon.png" x="0" y="0" type="image/png" height="78" width="78"/></pattern><circle class="filled" cx="0" cy="0" r="39" fill="url(#img-fill-354)"/><text text-anchor="middle" pointer-events="none" y="5" font-size="10px" fill="#604A0E" font-family="sans-serif"> Dragon</text></g><g class="node" transform="translate(-61.200176570585626,171.45452470341522)"><circle class="outline" cx="0" cy="0" r="40" fill="#D9C8AE" stroke="#c0a378" stroke-width="2px"/><text text-anchor="middle" pointer-events="none" font-family="sans-serif" dy="2.5" font-size="40" fill="#604A0E"/><pattern id="img-fill-368" patternUnits="userSpaceOnUse" x="-39" y="-39" height="156" width="156"><image xmlns:xlink="http://www.w3.org/1999/xlink" xlink:href="https://github.com/DinkleMinded/pokemon-gen6-type-advantage/raw/master/types/Fairy.png" x="0" y="0" type="image/png" height="78" width="78"/></pattern><circle class="filled" cx="0" cy="0" r="39" fill="url(#img-fill-368)"/><text text-anchor="middle" pointer-events="none" y="5" font-size="10px" fill="#604A0E" font-family="sans-serif"> Fairy</text></g></g></svg>