<svg xmlns="http://www.w3.org/2000/svg" width="1004.2831420898438" height="1323.929443359375" viewBox="66.21502685546875 -264.56146240234375 1004.2831420898438 1323.929443359375"><title>Neo4j Graph Visualization</title><desc>Created using Neo4j (http://www.neo4j.com/)</desc><g class="layer relationships"><g class="relationship" transform="translate(758.5388388206215 641.2705569188047) rotate(449.535375969745)"><path class="outline" fill="#8DCC93" stroke="none" d="M 40 2.5 L 91.74574647096433 2.5 L 91.74574647096433 -2.5 L 40 -2.5 Z M 123.38246522096433 2.5 L 175.12821169192867 2.5 L 175.12821169192867 5.5 L 186.12821169192867 0 L 175.12821169192867 -5.5 L 175.12821169192867 -2.5 L 123.38246522096433 -2.5 Z"/><text text-anchor="middle" pointer-events="none" font-size="8px" fill="#000000" x="107.56410584596433" y="3" font-family="sans-serif">BEATS</text></g><g class="relationship" transform="translate(758.5388388206215 641.2705569188047) rotate(251.67383272654808)"><path class="outline" fill="#8DCC93" stroke="none" d="M 40 2.5 L 204.14691161604551 2.5 L 204.14691161604551 -2.5 L 40 -2.5 Z M 235.78363036604551 2.5 L 399.93054198209103 2.5 L 399.93054198209103 5.5 L 410.93054198209103 0 L 399.93054198209103 -5.5 L 399.93054198209103 -2.5 L 235.78363036604551 -2.5 Z"/><text text-anchor="middle" pointer-events="none" font-size="8px" fill="#000000" x="219.96527099104551" y="3" transform="rotate(180 219.96527099104551 0)" font-family="sans-serif">BEATS</text></g><g class="relationship" transform="translate(758.5388388206215 641.2705569188047) rotate(334.83302048643554)"><path class="outline" fill="#8DCC93" stroke="none" d="M 40 2.5 L 122.72108706856889 2.5 L 122.72108706856889 -2.5 L 40 -2.5 Z M 154.3578058185689 2.5 L 237.07889288713778 2.5 L 237.07889288713778 5.5 L 248.07889288713778 0 L 237.07889288713778 -5.5 L 237.07889288713778 -2.5 L 154.3578058185689 -2.5 Z"/><text text-anchor="middle" pointer-events="none" font-size="8px" fill="#000000" x="138.5394464435689" y="3" font-family="sans-serif">BEATS</text></g><g class="relationship" transform="translate(758.5388388206215 641.2705569188047) rotate(188.95624669405532)"><path class="outline" fill="#8DCC93" stroke="none" d="M 40 2.5 L 306.8446712088455 2.5 L 306.8446712088455 -2.5 L 40 -2.5 Z M 338.4813899588455 2.5 L 605.326061167691 2.5 L 605.326061167691 5.5 L 616.326061167691 0 L 605.326061167691 -5.5 L 605.326061167691 -2.5 L 338.4813899588455 -2.5 Z"/><text text-anchor="middle" pointer-events="none" font-size="8px" fill="#000000" x="322.6630305838455" y="3" transform="rotate(180 322.6630305838455 0)" font-family="sans-serif">BEATS</text></g><g class="relationship" transform="translate(758.5388388206215 641.2705569188047) rotate(527.8277990370465)"><path class="outline" fill="#8DCC93" stroke="none" d="M 40 2.5 L 50.77964601892212 2.5 L 50.77964601892212 -2.5 L 40 -2.5 Z M 82.41636476892212 2.5 L 93.19601078784424 2.5 L 93.19601078784424 5.5 L 104.19601078784424 0 L 93.19601078784424 -5.5 L 93.19601078784424 -2.5 L 82.41636476892212 -2.5 Z"/><text text-anchor="middle" pointer-events="none" font-size="8px" fill="#000000" x="66.59800539392212" y="3" transform="rotate(180 66.59800539392212 0)" font-family="sans-serif">BEATS</text></g><g class="relationship" transform="translate(609.4610611851178 398.6920099383874) rotate(418.4270015193705)"><path class="outline" fill="#8DCC93" stroke="none" d="M 40 2.5 L 121.04432467516745 2.5 L 121.04432467516745 -2.5 L 40 -2.5 Z M 152.68104342516745 2.5 L 233.7253681003349 2.5 L 233.7253681003349 5.5 L 244.7253681003349 0 L 233.7253681003349 -5.5 L 233.7253681003349 -2.5 L 152.68104342516745 -2.5 Z"/><text text-anchor="middle" pointer-events="none" font-size="8px" fill="#000000" x="136.86268405016745" y="3" font-family="sans-serif">BEATS</text></g><g class="relationship" transform="translate(609.4610611851178 398.6920099383874) rotate(480.3842162580688)"><path class="outline" fill="#8DCC93" stroke="none" d="M 40 2.5 L 124.19576239063844 2.5 L 124.19576239063844 -2.5 L 40 -2.5 Z M 155.83248114063844 2.5 L 240.02824353127687 2.5 L 240.02824353127687 5.5 L 251.02824353127687 0 L 240.02824353127687 -5.5 L 240.02824353127687 -2.5 L 155.83248114063844 -2.5 Z"/><text text-anchor="middle" pointer-events="none" font-size="8px" fill="#000000" x="140.01412176563844" y="3" transform="rotate(180 140.01412176563844 0)" font-family="sans-serif">BEATS</text></g><g class="relationship" transform="translate(609.4610611851178 398.6920099383874) rotate(216.28303898372099)"><path class="outline" fill="#8DCC93" stroke="none" d="M 40 2.5 L 194.98731366340013 2.5 L 194.98731366340013 -2.5 L 40 -2.5 Z M 226.62403241340013 2.5 L 381.61134607680026 2.5 L 381.61134607680026 5.5 L 392.61134607680026 0 L 381.61134607680026 -5.5 L 381.61134607680026 -2.5 L 226.62403241340013 -2.5 Z"/><text text-anchor="middle" pointer-events="none" font-size="8px" fill="#000000" x="210.80567303840013" y="3" transform="rotate(180 210.80567303840013 0)" font-family="sans-serif">BEATS</text></g><g class="relationship" transform="translate(249.37785092051342 1012.5218300888932) rotate(358.8592285721229)"><path class="outline" fill="#8DCC93" stroke="none" d="M 40 2.5 L 367.3188404281608 2.5 L 367.3188404281608 -2.5 L 40 -2.5 Z M 398.9555591781608 2.5 L 726.2743996063216 2.5 L 726.2743996063216 5.5 L 737.2743996063216 0 L 726.2743996063216 -5.5 L 726.2743996063216 -2.5 L 398.9555591781608 -2.5 Z"/><text text-anchor="middle" pointer-events="none" font-size="8px" fill="#000000" x="383.1371998031608" y="3" font-family="sans-serif">BEATS</text></g><g class="relationship" transform="translate(249.37785092051342 1012.5218300888932) rotate(270.7478191001911)"><path class="outline" fill="#8DCC93" stroke="none" d="M 40 2.5 L 413.63779631970465 2.5 L 413.63779631970465 -2.5 L 40 -2.5 Z M 445.27451506970465 2.5 L 818.9123113894093 2.5 L 818.9123113894093 5.5 L 829.9123113894093 0 L 818.9123113894093 -5.5 L 818.9123113894093 -2.5 L 445.27451506970465 -2.5 Z"/><text text-anchor="middle" pointer-events="none" font-size="8px" fill="#000000" x="429.45615569470465" y="3" font-family="sans-serif">BEATS</text></g><g class="relationship" transform="translate(617.75934126124 25.498109742310817) rotate(410.85481009720627)"><path class="outline" fill="#8DCC93" stroke="none" d="M 40 2.5 L 296.6917386685511 2.5 L 296.6917386685511 -2.5 L 40 -2.5 Z M 328.3284574185511 2.5 L 585.0201960871022 2.5 L 585.0201960871022 5.5 L 596.0201960871022 0 L 585.0201960871022 -5.5 L 585.0201960871022 -2.5 L 328.3284574185511 -2.5 Z"/><text text-anchor="middle" pointer-events="none" font-size="8px" fill="#000000" x="312.5100980435511" y="3" font-family="sans-serif">BEATS</text></g><g class="relationship" transform="translate(617.75934126124 25.498109742310817) rotate(470.4668092777729)"><path class="outline" fill="#8DCC93" stroke="none" d="M 40 2.5 L 505.44552201600413 2.5 L 505.44552201600413 -2.5 L 40 -2.5 Z M 537.0822407660041 2.5 L 1002.5277627820083 2.5 L 1002.5277627820083 5.5 L 1013.5277627820083 0 L 1002.5277627820083 -5.5 L 1002.5277627820083 -2.5 L 537.0822407660041 -2.5 Z"/><text text-anchor="middle" pointer-events="none" font-size="8px" fill="#000000" x="521.2638813910041" y="3" transform="rotate(180 521.2638813910041 0)" font-family="sans-serif">BEATS</text></g><g class="relationship" transform="translate(617.75934126124 25.498109742310817) rotate(494.66047501707493)"><path class="outline" fill="#8DCC93" stroke="none" d="M 40 2.5 L 339.7154190247179 2.5 L 339.7154190247179 -2.5 L 40 -2.5 Z M 371.3521377747179 2.5 L 671.0675567994358 2.5 L 671.0675567994358 5.5 L 682.0675567994358 0 L 671.0675567994358 -5.5 L 671.0675567994358 -2.5 L 371.3521377747179 -2.5 Z"/><text text-anchor="middle" pointer-events="none" font-size="8px" fill="#000000" x="355.5337783997179" y="3" transform="rotate(180 355.5337783997179 0)" font-family="sans-serif">BEATS</text></g><g class="relationship" transform="translate(617.75934126124 25.498109742310817) rotate(347.9729155647801)"><path class="outline" fill="#8DCC93" stroke="none" d="M 40 2.5 L 52.872723530748345 2.5 L 52.872723530748345 -2.5 L 40 -2.5 Z M 84.50944228074835 2.5 L 97.38216581149669 2.5 L 97.38216581149669 5.5 L 108.38216581149669 0 L 97.38216581149669 -5.5 L 97.38216581149669 -2.5 L 84.50944228074835 -2.5 Z"/><text text-anchor="middle" pointer-events="none" font-size="8px" fill="#000000" x="68.69108290574835" y="3" font-family="sans-serif">BEATS</text></g><g class="relationship" transform="translate(617.75934126124 25.498109742310817) rotate(377.9394110690065)"><path class="outline" fill="#8DCC93" stroke="none" d="M 40 2.5 L 186.63025345111237 2.5 L 186.63025345111237 -2.5 L 40 -2.5 Z M 218.26697220111237 2.5 L 364.89722565222473 2.5 L 364.89722565222473 5.5 L 375.89722565222473 0 L 364.89722565222473 -5.5 L 364.89722565222473 -2.5 L 218.26697220111237 -2.5 Z"/><text text-anchor="middle" pointer-events="none" font-size="8px" fill="#000000" x="202.44861282611237" y="3" font-family="sans-serif">BEATS</text></g><g class="relationship" transform="translate(110.21502521349964 539.093596317045) rotate(377.4489769055673)"><path class="outline" fill="#8DCC93" stroke="none" d="M 40 2.5 L 163.19466261745833 2.5 L 163.19466261745833 -2.5 L 40 -2.5 Z M 194.83138136745833 2.5 L 318.02604398491667 2.5 L 318.02604398491667 5.5 L 329.02604398491667 0 L 318.02604398491667 -5.5 L 318.02604398491667 -2.5 L 194.83138136745833 -2.5 Z"/><text text-anchor="middle" pointer-events="none" font-size="8px" fill="#000000" x="179.01302199245833" y="3" font-family="sans-serif">BEATS</text></g><g class="relationship" transform="translate(110.21502521349964 539.093596317045) rotate(336.88723880949465)"><path class="outline" fill="#8DCC93" stroke="none" d="M 40 2.5 L 469.70495709082576 2.5 L 469.70495709082576 -2.5 L 40 -2.5 Z M 501.34167584082576 2.5 L 931.0466329316515 2.5 L 931.0466329316515 5.5 L 942.0466329316515 0 L 931.0466329316515 -5.5 L 931.0466329316515 -2.5 L 501.34167584082576 -2.5 Z"/><text text-anchor="middle" pointer-events="none" font-size="8px" fill="#000000" x="485.52331646582576" y="3" font-family="sans-serif">BEATS</text></g><g class="relationship" transform="translate(110.21502521349964 539.093596317045) rotate(344.2925704686405)"><path class="outline" fill="#8DCC93" stroke="none" d="M 40 2.5 L 237.98802788292022 2.5 L 237.98802788292022 -2.5 L 40 -2.5 Z M 269.6247466329202 2.5 L 467.61277451584044 2.5 L 467.61277451584044 5.5 L 478.61277451584044 0 L 467.61277451584044 -5.5 L 467.61277451584044 -2.5 L 269.6247466329202 -2.5 Z"/><text text-anchor="middle" pointer-events="none" font-size="8px" fill="#000000" x="253.80638725792022" y="3" font-family="sans-serif">BEATS</text></g><g class="relationship" transform="translate(110.21502521349964 539.093596317045) rotate(327.24471069386755)"><path class="outline" fill="#8DCC93" stroke="none" d="M 40 2.5 L 279.83865439400984 2.5 L 279.83865439400984 -2.5 L 40 -2.5 Z M 311.47537314400984 2.5 L 551.3140275380197 2.5 L 551.3140275380197 5.5 L 562.3140275380197 0 L 551.3140275380197 -5.5 L 551.3140275380197 -2.5 L 311.47537314400984 -2.5 Z"/><text text-anchor="middle" pointer-events="none" font-size="8px" fill="#000000" x="295.65701376900984" y="3" font-family="sans-serif">BEATS</text></g><g class="relationship" transform="translate(462.260098640161 649.7484083008637) rotate(396.1320571925578)"><path class="outline" fill="#8DCC93" stroke="none" d="M 40 2.5 L 163.23479813735906 2.5 L 163.23479813735906 -2.5 L 40 -2.5 Z M 194.87151688735906 2.5 L 318.1063150247181 2.5 L 318.1063150247181 5.5 L 329.1063150247181 0 L 318.1063150247181 -5.5 L 318.1063150247181 -2.5 L 194.87151688735906 -2.5 Z"/><text text-anchor="middle" pointer-events="none" font-size="8px" fill="#000000" x="179.05315751235906" y="3" font-family="sans-serif">BEATS</text></g><g class="relationship" transform="translate(462.260098640161 649.7484083008637) rotate(248.3250771680424)"><path class="outline" fill="#8DCC93" stroke="none" d="M 40 2.5 L 251.5041403517959 2.5 L 251.5041403517959 -2.5 L 40 -2.5 Z M 283.1408591017959 2.5 L 494.6449994535918 2.5 L 494.6449994535918 5.5 L 505.6449994535918 0 L 494.6449994535918 -5.5 L 494.6449994535918 -2.5 L 283.1408591017959 -2.5 Z"/><text text-anchor="middle" pointer-events="none" font-size="8px" fill="#000000" x="267.3224997267959" y="3" transform="rotate(180 267.3224997267959 0)" font-family="sans-serif">BEATS</text></g><g class="relationship" transform="translate(462.260098640161 649.7484083008637) rotate(449.48129186709184)"><path class="outline" fill="#8DCC93" stroke="none" d="M 40 2.5 L 88.9721901078417 2.5 L 88.9721901078417 -2.5 L 40 -2.5 Z M 120.6089088578417 2.5 L 169.5810989656834 2.5 L 169.5810989656834 5.5 L 180.5810989656834 0 L 169.5810989656834 -5.5 L 169.5810989656834 -2.5 L 120.6089088578417 -2.5 Z"/><text text-anchor="middle" pointer-events="none" font-size="8px" fill="#000000" x="104.7905494828417" y="3" font-family="sans-serif">BEATS</text></g><g class="relationship" transform="translate(621.9445216472809 940.5086864441175) rotate(358.0756988419289)"><path class="outline" fill="#8DCC93" stroke="none" d="M 12.767576369823502 37.98998543880643 L 23.120338173924335 76.62701849036915 A 23.935935394489817 23.935935394489817 0 1 1 -23.120338173924335 76.62701849036915 L -15.614585865951227 48.61516952798618 L -7.887179255638683 50.68572188880635 L -10.352761804100831 38.63703305156273 L -18.512363344818432 47.83871239267862 L -10.784956734505888 49.90926475349878 L -18.29070904247899 77.92111371588176 A 18.935935394489817 18.935935394489817 0 1 0 18.29070904247899 77.92111371588176 L 7.93794723837816 39.28408066431903 Z"/><text text-anchor="middle" pointer-events="none" font-size="8px" fill="#000000" x="0" y="115.75802982729645" font-family="sans-serif">BEATS</text></g><g class="relationship" transform="translate(621.9445216472809 940.5086864441175) rotate(203.99430588059477)"><path class="outline" fill="#8DCC93" stroke="none" d="M 40 2.5 L 64.98304783332475 2.5 L 64.98304783332475 -2.5 L 40 -2.5 Z M 96.61976658332475 2.5 L 121.6028144166495 2.5 L 121.6028144166495 5.5 L 132.6028144166495 0 L 121.6028144166495 -5.5 L 121.6028144166495 -2.5 L 96.61976658332475 -2.5 Z"/><text text-anchor="middle" pointer-events="none" font-size="8px" fill="#000000" x="80.80140720832475" y="3" transform="rotate(180 80.80140720832475 0)" font-family="sans-serif">BEATS</text></g><g class="relationship" transform="translate(1019.2710608664081 518.7627738430112) rotate(449.13429604548054)"><path class="outline" fill="#8DCC93" stroke="none" d="M 40 2.5 L 217.85112872418455 2.5 L 217.85112872418455 -2.5 L 40 -2.5 Z M 249.48784747418455 2.5 L 427.3389761983691 2.5 L 427.3389761983691 5.5 L 438.3389761983691 0 L 427.3389761983691 -5.5 L 427.3389761983691 -2.5 L 249.48784747418455 -2.5 Z"/><text text-anchor="middle" pointer-events="none" font-size="8px" fill="#000000" x="233.66948809918455" y="3" font-family="sans-serif">BEATS</text></g><g class="relationship" transform="translate(1019.2710608664081 518.7627738430112) rotate(538.7188070719294)"><path class="outline" fill="#8DCC93" stroke="none" d="M 40 2.5 L 433.32331774541444 2.5 L 433.32331774541444 -2.5 L 40 -2.5 Z M 464.96003649541444 2.5 L 858.2833542408289 2.5 L 858.2833542408289 5.5 L 869.2833542408289 0 L 858.2833542408289 -5.5 L 858.2833542408289 -2.5 L 464.96003649541444 -2.5 Z"/><text text-anchor="middle" pointer-events="none" font-size="8px" fill="#000000" x="449.14167712041444" y="3" transform="rotate(180 449.14167712041444 0)" font-family="sans-serif">BEATS</text></g><g class="relationship" transform="translate(1019.2710608664081 518.7627738430112) rotate(217.20232846891315)"><path class="outline" fill="#8DCC93" stroke="none" d="M 40 2.5 L 231.35823851496698 2.5 L 231.35823851496698 -2.5 L 40 -2.5 Z M 262.99495726496696 2.5 L 454.35319577993397 2.5 L 454.35319577993397 5.5 L 465.35319577993397 0 L 454.35319577993397 -5.5 L 454.35319577993397 -2.5 L 262.99495726496696 -2.5 Z"/><text text-anchor="middle" pointer-events="none" font-size="8px" fill="#000000" x="247.17659788996698" y="3" transform="rotate(180 247.17659788996698 0)" font-family="sans-serif">BEATS</text></g><g class="relationship" transform="translate(1013.4367927727722 153.5990725433635) rotate(498.00760119189874)"><path class="outline" fill="#8DCC93" stroke="none" d="M 40 2.5 L 349.47805091222307 2.5 L 349.47805091222307 -2.5 L 40 -2.5 Z M 381.11476966222307 2.5 L 690.5928205744461 2.5 L 690.5928205744461 5.5 L 701.5928205744461 0 L 690.5928205744461 -5.5 L 690.5928205744461 -2.5 L 381.11476966222307 -2.5 Z"/><text text-anchor="middle" pointer-events="none" font-size="8px" fill="#000000" x="365.29641028722307" y="3" transform="rotate(180 365.29641028722307 0)" font-family="sans-serif">BEATS</text></g><g class="relationship" transform="translate(1013.4367927727722 153.5990725433635) rotate(180.8308244220591)"><path class="outline" fill="#8DCC93" stroke="none" d="M 40 2.5 L 355.07383701668294 2.5 L 355.07383701668294 -2.5 L 40 -2.5 Z M 386.71055576668294 2.5 L 701.7843927833659 2.5 L 701.7843927833659 5.5 L 712.7843927833659 0 L 701.7843927833659 -5.5 L 701.7843927833659 -2.5 L 386.71055576668294 -2.5 Z"/><text text-anchor="middle" pointer-events="none" font-size="8px" fill="#000000" x="370.89219639168294" y="3" transform="rotate(180 370.89219639168294 0)" font-family="sans-serif">BEATS</text></g><g class="relationship" transform="translate(1013.4367927727722 153.5990725433635) rotate(449.08465573705854)"><path class="outline" fill="#8DCC93" stroke="none" d="M 40 2.5 L 161.2867935034489 2.5 L 161.2867935034489 -2.5 L 40 -2.5 Z M 192.9235122534489 2.5 L 314.2103057568978 2.5 L 314.2103057568978 5.5 L 325.2103057568978 0 L 314.2103057568978 -5.5 L 314.2103057568978 -2.5 L 192.9235122534489 -2.5 Z"/><text text-anchor="middle" pointer-events="none" font-size="8px" fill="#000000" x="177.1051528784489" y="3" font-family="sans-serif">BEATS</text></g><g class="relationship" transform="translate(1013.4367927727722 153.5990725433635) rotate(531.4538504802053)"><path class="outline" fill="#8DCC93" stroke="none" d="M 40 2.5 L 179.2497785676154 2.5 L 179.2497785676154 -2.5 L 40 -2.5 Z M 210.8864973176154 2.5 L 350.1362758852308 2.5 L 350.1362758852308 5.5 L 361.1362758852308 0 L 350.1362758852308 -5.5 L 350.1362758852308 -2.5 L 210.8864973176154 -2.5 Z"/><text text-anchor="middle" pointer-events="none" font-size="8px" fill="#000000" x="195.0681379426154" y="3" transform="rotate(180 195.0681379426154 0)" font-family="sans-serif">BEATS</text></g><g class="relationship" transform="translate(621.2382994187801 -220.5614458656339) rotate(483.9288944192519)"><path class="outline" fill="#8DCC93" stroke="none" d="M 40 2.5 L 436.45357344009 2.5 L 436.45357344009 -2.5 L 40 -2.5 Z M 468.09029219009 2.5 L 864.54386563018 2.5 L 864.54386563018 5.5 L 875.54386563018 0 L 864.54386563018 -5.5 L 864.54386563018 -2.5 L 468.09029219009 -2.5 Z"/><text text-anchor="middle" pointer-events="none" font-size="8px" fill="#000000" x="452.27193281509" y="3" transform="rotate(180 452.27193281509 0)" font-family="sans-serif">BEATS</text></g><g class="relationship" transform="translate(621.2382994187801 -220.5614458656339) rotate(450.8100329144938)"><path class="outline" fill="#8DCC93" stroke="none" d="M 40 2.5 L 101.72371478648465 2.5 L 101.72371478648465 -2.5 L 40 -2.5 Z M 133.36043353648466 2.5 L 195.0841483229693 2.5 L 195.0841483229693 5.5 L 206.0841483229693 0 L 195.0841483229693 -5.5 L 195.0841483229693 -2.5 L 133.36043353648466 -2.5 Z"/><text text-anchor="middle" pointer-events="none" font-size="8px" fill="#000000" x="117.54207416148465" y="3" transform="rotate(180 117.54207416148465 0)" font-family="sans-serif">BEATS</text></g><g class="relationship" transform="translate(621.2382994187801 -220.5614458656339) rotate(403.65166452100976)"><path class="outline" fill="#8DCC93" stroke="none" d="M 40 2.5 L 249.70551029575017 2.5 L 249.70551029575017 -2.5 L 40 -2.5 Z M 281.3422290457502 2.5 L 491.04773934150035 2.5 L 491.04773934150035 5.5 L 502.04773934150035 0 L 491.04773934150035 -5.5 L 491.04773934150035 -2.5 L 281.3422290457502 -2.5 Z"/><text text-anchor="middle" pointer-events="none" font-size="8px" fill="#000000" x="265.5238696707502" y="3" font-family="sans-serif">BEATS</text></g><g class="relationship" transform="translate(260.7315418478486 142.68361340191007) rotate(314.78322350565776)"><path class="outline" fill="#8DCC93" stroke="none" d="M 40 2.5 L 234.56838087182675 2.5 L 234.56838087182675 -2.5 L 40 -2.5 Z M 266.2050996218268 2.5 L 460.7734804936535 2.5 L 460.7734804936535 5.5 L 471.7734804936535 0 L 460.7734804936535 -5.5 L 460.7734804936535 -2.5 L 266.2050996218268 -2.5 Z"/><text text-anchor="middle" pointer-events="none" font-size="8px" fill="#000000" x="250.38674024682675" y="3" font-family="sans-serif">BEATS</text></g><g class="relationship" transform="translate(260.7315418478486 142.68361340191007) rotate(470.79172494794074)"><path class="outline" fill="#8DCC93" stroke="none" d="M 40 2.5 L 190.69348954771695 2.5 L 190.69348954771695 -2.5 L 40 -2.5 Z M 222.33020829771695 2.5 L 373.0236978454339 2.5 L 373.0236978454339 5.5 L 384.0236978454339 0 L 373.0236978454339 -5.5 L 373.0236978454339 -2.5 L 222.33020829771695 -2.5 Z"/><text text-anchor="middle" pointer-events="none" font-size="8px" fill="#000000" x="206.51184892271695" y="3" transform="rotate(180 206.51184892271695 0)" font-family="sans-serif">BEATS</text></g><g class="relationship" transform="translate(260.7315418478486 142.68361340191007) rotate(341.82886311390985)"><path class="outline" fill="#8DCC93" stroke="none" d="M 40 2.5 L 166.56544236288454 2.5 L 166.56544236288454 -2.5 L 40 -2.5 Z M 198.20216111288454 2.5 L 324.7676034757691 2.5 L 324.7676034757691 5.5 L 335.7676034757691 0 L 324.7676034757691 -5.5 L 324.7676034757691 -2.5 L 198.20216111288454 -2.5 Z"/><text text-anchor="middle" pointer-events="none" font-size="8px" fill="#000000" x="182.38380173788454" y="3" font-family="sans-serif">BEATS</text></g><g class="relationship" transform="translate(762.8844011600008 -5.420883130866343) rotate(236.6395470910211)"><path class="outline" fill="#8DCC93" stroke="none" d="M 40 2.5 L 107.47321631253936 2.5 L 107.47321631253936 -2.5 L 40 -2.5 Z M 139.10993506253936 2.5 L 206.58315137507873 2.5 L 206.58315137507873 5.5 L 217.58315137507873 0 L 206.58315137507873 -5.5 L 206.58315137507873 -2.5 L 139.10993506253936 -2.5 Z"/><text text-anchor="middle" pointer-events="none" font-size="8px" fill="#000000" x="123.29157568753936" y="3" transform="rotate(180 123.29157568753936 0)" font-family="sans-serif">BEATS</text></g><g class="relationship" transform="translate(762.8844011600008 -5.420883130866343) rotate(470.7894987854239)"><path class="outline" fill="#8DCC93" stroke="none" d="M 40 2.5 L 194.81004666747899 2.5 L 194.81004666747899 -2.5 L 40 -2.5 Z M 226.44676541747899 2.5 L 381.25681208495797 2.5 L 381.25681208495797 5.5 L 392.25681208495797 0 L 381.25681208495797 -5.5 L 381.25681208495797 -2.5 L 226.44676541747899 -2.5 Z"/><text text-anchor="middle" pointer-events="none" font-size="8px" fill="#000000" x="210.62840604247899" y="3" transform="rotate(180 210.62840604247899 0)" font-family="sans-serif">BEATS</text></g><g class="relationship" transform="translate(464.25702839734276 870.3204679377395) rotate(506.5044618033768)"><path class="outline" fill="#8DCC93" stroke="none" d="M 40 2.5 L 107.5170863598232 2.5 L 107.5170863598232 -2.5 L 40 -2.5 Z M 139.1538051098232 2.5 L 206.6708914696464 2.5 L 206.6708914696464 5.5 L 217.6708914696464 0 L 206.6708914696464 -5.5 L 206.6708914696464 -2.5 L 139.1538051098232 -2.5 Z"/><text text-anchor="middle" pointer-events="none" font-size="8px" fill="#000000" x="123.3354457348232" y="3" transform="rotate(180 123.3354457348232 0)" font-family="sans-serif">BEATS</text></g><g class="relationship" transform="translate(464.25702839734276 870.3204679377395) rotate(322.10511959645487)"><path class="outline" fill="#8DCC93" stroke="none" d="M 40 2.5 L 165.13917311147839 2.5 L 165.13917311147839 -2.5 L 40 -2.5 Z M 196.77589186147839 2.5 L 321.91506497295677 2.5 L 321.91506497295677 5.5 L 332.91506497295677 0 L 321.91506497295677 -5.5 L 321.91506497295677 -2.5 L 196.77589186147839 -2.5 Z"/><text text-anchor="middle" pointer-events="none" font-size="8px" fill="#000000" x="180.95753248647839" y="3" font-family="sans-serif">BEATS</text></g><g class="relationship" transform="translate(616.7545384095142 213.2103206795632) rotate(419.775631788195)"><path class="outline" fill="#8DCC93" stroke="none" d="M 40 2.5 L 248.49092578818608 2.5 L 248.49092578818608 -2.5 L 40 -2.5 Z M 280.1276445381861 2.5 L 488.61857032637215 2.5 L 488.61857032637215 5.5 L 499.61857032637215 0 L 488.61857032637215 -5.5 L 488.61857032637215 -2.5 L 280.1276445381861 -2.5 Z"/><text text-anchor="middle" pointer-events="none" font-size="8px" fill="#000000" x="264.3092851631861" y="3" font-family="sans-serif">BEATS</text></g><g class="relationship" transform="translate(616.7545384095142 213.2103206795632) rotate(191.20499506411522)"><path class="outline" fill="#8DCC93" stroke="none" d="M 40 2.5 L 160.15229288052006 2.5 L 160.15229288052006 -2.5 L 40 -2.5 Z M 191.78901163052006 2.5 L 311.94130451104013 2.5 L 311.94130451104013 5.5 L 322.94130451104013 0 L 311.94130451104013 -5.5 L 311.94130451104013 -2.5 L 191.78901163052006 -2.5 Z"/><text text-anchor="middle" pointer-events="none" font-size="8px" fill="#000000" x="175.97065225552006" y="3" transform="rotate(180 175.97065225552006 0)" font-family="sans-serif">BEATS</text></g><g class="relationship" transform="translate(616.7545384095142 213.2103206795632) rotate(270.30669508659037)"><path class="outline" fill="#8DCC93" stroke="none" d="M 40 2.5 L 72.5390907338251 2.5 L 72.5390907338251 -2.5 L 40 -2.5 Z M 104.1758094838251 2.5 L 136.7149002176502 2.5 L 136.7149002176502 5.5 L 147.7149002176502 0 L 136.7149002176502 -5.5 L 136.7149002176502 -2.5 L 104.1758094838251 -2.5 Z"/><text text-anchor="middle" pointer-events="none" font-size="8px" fill="#000000" x="88.3574501088251" y="3" font-family="sans-serif">BEATS</text></g><g class="relationship" transform="translate(616.7545384095142 213.2103206795632) rotate(452.2518141023934)"><path class="outline" fill="#8DCC93" stroke="none" d="M 40 2.5 L 71.49415575675607 2.5 L 71.49415575675607 -2.5 L 40 -2.5 Z M 103.13087450675607 2.5 L 134.62503026351214 2.5 L 134.62503026351214 5.5 L 145.62503026351214 0 L 134.62503026351214 -5.5 L 134.62503026351214 -2.5 L 103.13087450675607 -2.5 Z"/><text text-anchor="middle" pointer-events="none" font-size="8px" fill="#000000" x="87.31251513175607" y="3" transform="rotate(180 87.31251513175607 0)" font-family="sans-serif">BEATS</text></g><g class="relationship" transform="translate(888.3917717538739 679.4735670352027) rotate(243.136185008248)"><path class="outline" fill="#8DCC93" stroke="none" d="M 12.767576369823502 37.98998543880643 L 23.120338173924335 76.62701849036915 A 23.935935394489817 23.935935394489817 0 1 1 -23.120338173924335 76.62701849036915 L -15.614585865951227 48.61516952798618 L -7.887179255638683 50.68572188880635 L -10.352761804100831 38.63703305156273 L -18.512363344818432 47.83871239267862 L -10.784956734505888 49.90926475349878 L -18.29070904247899 77.92111371588176 A 18.935935394489817 18.935935394489817 0 1 0 18.29070904247899 77.92111371588176 L 7.93794723837816 39.28408066431903 Z"/><text text-anchor="middle" pointer-events="none" font-size="8px" fill="#000000" x="0" y="115.75802982729645" transform="rotate(180 0 112.75802982729645)" font-family="sans-serif">BEATS</text></g><g class="relationship" transform="translate(760.3725419392312 867.3913336198025) rotate(512.157091803263)"><path class="outline" fill="#8DCC93" stroke="none" d="M 40 2.5 L 56.95753743555076 2.5 L 56.95753743555076 -2.5 L 40 -2.5 Z M 88.59425618555076 2.5 L 105.55179362110152 2.5 L 105.55179362110152 5.5 L 116.55179362110152 0 L 105.55179362110152 -5.5 L 105.55179362110152 -2.5 L 88.59425618555076 -2.5 Z"/><text text-anchor="middle" pointer-events="none" font-size="8px" fill="#000000" x="72.77589681055076" y="3" transform="rotate(180 72.77589681055076 0)" font-family="sans-serif">BEATS</text></g><g class="relationship" transform="translate(760.3725419392312 867.3913336198025) rotate(539.4332564394956)"><path class="outline" fill="#8DCC93" stroke="none" d="M 40 2.5 L 126.74664086816077 2.5 L 126.74664086816077 -2.5 L 40 -2.5 Z M 158.38335961816077 2.5 L 245.13000048632153 2.5 L 245.13000048632153 5.5 L 256.13000048632153 0 L 245.13000048632153 -5.5 L 245.13000048632153 -2.5 L 158.38335961816077 -2.5 Z"/><text text-anchor="middle" pointer-events="none" font-size="8px" fill="#000000" x="142.56500024316077" y="3" transform="rotate(180 142.56500024316077 0)" font-family="sans-serif">BEATS</text></g><g class="relationship" transform="translate(1026.4981933173608 997.0471502416558) rotate(233.01413015558313)"><path class="outline" fill="#8DCC93" stroke="none" d="M 40 2.5 L 201.3805404980812 2.5 L 201.3805404980812 -2.5 L 40 -2.5 Z M 233.0172592480812 2.5 L 394.3977997461624 2.5 L 394.3977997461624 5.5 L 405.3977997461624 0 L 394.3977997461624 -5.5 L 394.3977997461624 -2.5 L 233.0172592480812 -2.5 Z"/><text text-anchor="middle" pointer-events="none" font-size="8px" fill="#000000" x="217.1988998730812" y="3" transform="rotate(180 217.1988998730812 0)" font-family="sans-serif">BEATS</text></g><g class="relationship" transform="translate(1026.4981933173608 997.0471502416558) rotate(246.49673822830096)"><path class="outline" fill="#8DCC93" stroke="none" d="M 40 2.5 L 151.83357133013072 2.5 L 151.83357133013072 -2.5 L 40 -2.5 Z M 183.47029008013072 2.5 L 295.30386141026145 2.5 L 295.30386141026145 5.5 L 306.30386141026145 0 L 295.30386141026145 -5.5 L 295.30386141026145 -2.5 L 183.47029008013072 -2.5 Z"/><text text-anchor="middle" pointer-events="none" font-size="8px" fill="#000000" x="167.65193070513072" y="3" transform="rotate(180 167.65193070513072 0)" font-family="sans-serif">BEATS</text></g><g class="relationship" transform="translate(1026.4981933173608 997.0471502416558) rotate(205.9752392859578)"><path class="outline" fill="#8DCC93" stroke="none" d="M 40 2.5 L 126.69641446980361 2.5 L 126.69641446980361 -2.5 L 40 -2.5 Z M 158.3331332198036 2.5 L 245.02954768960723 2.5 L 245.02954768960723 5.5 L 256.0295476896072 0 L 245.02954768960723 -5.5 L 245.02954768960723 -2.5 L 158.3331332198036 -2.5 Z"/><text text-anchor="middle" pointer-events="none" font-size="8px" fill="#000000" x="142.5147738448036" y="3" transform="rotate(180 142.5147738448036 0)" font-family="sans-serif">BEATS</text></g></g><g class="layer nodes"><g class="node" transform="translate(758.5388388206215,641.2705569188047)"><circle class="outline" cx="0" cy="0" r="40" fill="#D9C8AE" stroke="#c0a378" stroke-width="2px"/><text text-anchor="middle" pointer-events="none" font-family="sans-serif" dy="2.5" font-size="40" fill="#604A0E"/><pattern id="img-fill-256" patternUnits="userSpaceOnUse" x="-39" y="-39" height="156" width="156"><image xmlns:xlink="http://www.w3.org/1999/xlink" xlink:href="https://github.com/DinkleMinded/pokemon-gen6-type-advantage/raw/master/types/Fighting.png" x="0" y="0" type="image/png" height="78" width="78"/></pattern><circle class="filled" cx="0" cy="0" r="39" fill="url(#img-fill-256)"/><text text-anchor="middle" pointer-events="none" y="5" font-size="10px" fill="#604A0E" font-family="sans-serif"> Fighting</text></g><g class="node" transform="translate(760.3725419392312,867.3913336198025)"><circle class="outline" cx="0" cy="0" r="40" fill="#D9C8AE" stroke="#c0a378" stroke-width="2px"/><text text-anchor="middle" pointer-events="none" font-family="sans-serif" dy="2.5" font-size="40" fill="#604A0E"/><pattern id="img-fill-361" patternUnits="userSpaceOnUse" x="-39" y="-39" height="156" width="156"><image xmlns:xlink="http://www.w3.org/1999/xlink" xlink:href="https://github.com/DinkleMinded/pokemon-gen6-type-advantage/raw/master/types/Dark.png" x="0" y="0" type="image/png" height="78" width="78"/></pattern><circle class="filled" cx="0" cy="0" r="39" fill="url(#img-fill-361)"/><text text-anchor="middle" pointer-events="none" y="5" font-size="10px" fill="#604A0E" font-family="sans-serif"> Dark</text></g><g class="node" transform="translate(616.7545384095142,213.2103206795632)"><circle class="outline" cx="0" cy="0" r="40" fill="#D9C8AE" stroke="#c0a378" stroke-width="2px"/><text text-anchor="middle" pointer-events="none" font-family="sans-serif" dy="2.5" font-size="40" fill="#604A0E"/><pattern id="img-fill-347" patternUnits="userSpaceOnUse" x="-39" y="-39" height="156" width="156"><image xmlns:xlink="http://www.w3.org/1999/xlink" xlink:href="https://github.com/DinkleMinded/pokemon-gen6-type-advantage/raw/master/types/Ice.png" x="0" y="0" type="image/png" height="78" width="78"/></pattern><circle class="filled" cx="0" cy="0" r="39" fill="url(#img-fill-347)"/><text text-anchor="middle" pointer-events="none" y="5" font-size="10px" fill="#604A0E" font-family="sans-serif"> Ice</text></g><g class="node" transform="translate(1019.2710608664081,518.7627738430112)"><circle class="outline" cx="0" cy="0" r="40" fill="#D9C8AE" stroke="#c0a378" stroke-width="2px"/><text text-anchor="middle" pointer-events="none" font-family="sans-serif" dy="2.5" font-size="40" fill="#604A0E"/><pattern id="img-fill-305" patternUnits="userSpaceOnUse" x="-39" y="-39" height="156" width="156"><image xmlns:xlink="http://www.w3.org/1999/xlink" xlink:href="https://github.com/DinkleMinded/pokemon-gen6-type-advantage/raw/master/types/Steel.png" x="0" y="0" type="image/png" height="78" width="78"/></pattern><circle class="filled" cx="0" cy="0" r="39" fill="url(#img-fill-305)"/><text text-anchor="middle" pointer-events="none" y="5" font-size="10px" fill="#604A0E" font-family="sans-serif"> Steel</text></g><g class="node" transform="translate(110.21502521349964,539.093596317045)"><circle class="outline" cx="0" cy="0" r="40" fill="#D9C8AE" stroke="#c0a378" stroke-width="2px"/><text text-anchor="middle" pointer-events="none" font-family="sans-serif" dy="2.5" font-size="40" fill="#604A0E"/><pattern id="img-fill-284" patternUnits="userSpaceOnUse" x="-39" y="-39" height="156" width="156"><image xmlns:xlink="http://www.w3.org/1999/xlink" xlink:href="https://github.com/DinkleMinded/pokemon-gen6-type-advantage/raw/master/types/Rock.png" x="0" y="0" type="image/png" height="78" width="78"/></pattern><circle class="filled" cx="0" cy="0" r="39" fill="url(#img-fill-284)"/><text text-anchor="middle" pointer-events="none" y="5" font-size="10px" fill="#604A0E" font-family="sans-serif"> Rock</text></g><g class="node" transform="translate(617.5845979309746,671.6743642848481)"><circle class="outline" cx="0" cy="0" r="40" fill="#D9C8AE" stroke="#c0a378" stroke-width="2px"/><text text-anchor="middle" pointer-events="none" font-family="sans-serif" dy="2.5" font-size="40" fill="#604A0E"/><pattern id="img-fill-249" patternUnits="userSpaceOnUse" x="-39" y="-39" height="156" width="156"><image xmlns:xlink="http://www.w3.org/1999/xlink" xlink:href="https://github.com/DinkleMinded/pokemon-gen6-type-advantage/raw/master/types/Normal.png" x="0" y="0" type="image/png" height="78" width="78"/></pattern><circle class="filled" cx="0" cy="0" r="39" fill="url(#img-fill-249)"/><text text-anchor="middle" pointer-events="none" y="5" font-size="10px" fill="#604A0E" font-family="sans-serif"> Normal</text></g><g class="node" transform="translate(609.4610611851178,398.6920099383874)"><circle class="outline" cx="0" cy="0" r="40" fill="#D9C8AE" stroke="#c0a378" stroke-width="2px"/><text text-anchor="middle" pointer-events="none" font-family="sans-serif" dy="2.5" font-size="40" fill="#604A0E"/><pattern id="img-fill-263" patternUnits="userSpaceOnUse" x="-39" y="-39" height="156" width="156"><image xmlns:xlink="http://www.w3.org/1999/xlink" xlink:href="https://github.com/DinkleMinded/pokemon-gen6-type-advantage/raw/master/types/Flying.png" x="0" y="0" type="image/png" height="78" width="78"/></pattern><circle class="filled" cx="0" cy="0" r="39" fill="url(#img-fill-263)"/><text text-anchor="middle" pointer-events="none" y="5" font-size="10px" fill="#604A0E" font-family="sans-serif"> Flying</text></g><g class="node" transform="translate(462.260098640161,649.7484083008637)"><circle class="outline" cx="0" cy="0" r="40" fill="#D9C8AE" stroke="#c0a378" stroke-width="2px"/><text text-anchor="middle" pointer-events="none" font-family="sans-serif" dy="2.5" font-size="40" fill="#604A0E"/><pattern id="img-fill-291" patternUnits="userSpaceOnUse" x="-39" y="-39" height="156" width="156"><image xmlns:xlink="http://www.w3.org/1999/xlink" xlink:href="https://github.com/DinkleMinded/pokemon-gen6-type-advantage/raw/master/types/Bug.png" x="0" y="0" type="image/png" height="78" width="78"/></pattern><circle class="filled" cx="0" cy="0" r="39" fill="url(#img-fill-291)"/><text text-anchor="middle" pointer-events="none" y="5" font-size="10px" fill="#604A0E" font-family="sans-serif"> Bug</text></g><g class="node" transform="translate(260.7315418478486,142.68361340191007)"><circle class="outline" cx="0" cy="0" r="40" fill="#D9C8AE" stroke="#c0a378" stroke-width="2px"/><text text-anchor="middle" pointer-events="none" font-family="sans-serif" dy="2.5" font-size="40" fill="#604A0E"/><pattern id="img-fill-326" patternUnits="userSpaceOnUse" x="-39" y="-39" height="156" width="156"><image xmlns:xlink="http://www.w3.org/1999/xlink" xlink:href="https://github.com/DinkleMinded/pokemon-gen6-type-advantage/raw/master/types/Grass.png" x="0" y="0" type="image/png" height="78" width="78"/></pattern><circle class="filled" cx="0" cy="0" r="39" fill="url(#img-fill-326)"/><text text-anchor="middle" pointer-events="none" y="5" font-size="10px" fill="#604A0E" font-family="sans-serif"> Grass</text></g><g class="node" transform="translate(249.37785092051342,1012.5218300888932)"><circle class="outline" cx="0" cy="0" r="40" fill="#D9C8AE" stroke="#c0a378" stroke-width="2px"/><text text-anchor="middle" pointer-events="none" font-family="sans-serif" dy="2.5" font-size="40" fill="#604A0E"/><pattern id="img-fill-270" patternUnits="userSpaceOnUse" x="-39" y="-39" height="156" width="156"><image xmlns:xlink="http://www.w3.org/1999/xlink" xlink:href="https://github.com/DinkleMinded/pokemon-gen6-type-advantage/raw/master/types/Poison.png" x="0" y="0" type="image/png" height="78" width="78"/></pattern><circle class="filled" cx="0" cy="0" r="39" fill="url(#img-fill-270)"/><text text-anchor="middle" pointer-events="none" y="5" font-size="10px" fill="#604A0E" font-family="sans-serif"> Poison</text></g><g class="node" transform="translate(1026.4981933173608,997.0471502416558)"><circle class="outline" cx="0" cy="0" r="40" fill="#D9C8AE" stroke="#c0a378" stroke-width="2px"/><text text-anchor="middle" pointer-events="none" font-family="sans-serif" dy="2.5" font-size="40" fill="#604A0E"/><pattern id="img-fill-368" patternUnits="userSpaceOnUse" x="-39" y="-39" height="156" width="156"><image xmlns:xlink="http://www.w3.org/1999/xlink" xlink:href="https://github.com/DinkleMinded/pokemon-gen6-type-advantage/raw/master/types/Fairy.png" x="0" y="0" type="image/png" height="78" width="78"/></pattern><circle class="filled" cx="0" cy="0" r="39" fill="url(#img-fill-368)"/><text text-anchor="middle" pointer-events="none" y="5" font-size="10px" fill="#604A0E" font-family="sans-serif"> Fairy</text></g><g class="node" transform="translate(617.75934126124,25.498109742310817)"><circle class="outline" cx="0" cy="0" r="40" fill="#D9C8AE" stroke="#c0a378" stroke-width="2px"/><text text-anchor="middle" pointer-events="none" font-family="sans-serif" dy="2.5" font-size="40" fill="#604A0E"/><pattern id="img-fill-277" patternUnits="userSpaceOnUse" x="-39" y="-39" height="156" width="156"><image xmlns:xlink="http://www.w3.org/1999/xlink" xlink:href="https://github.com/DinkleMinded/pokemon-gen6-type-advantage/raw/master/types/Ground.png" x="0" y="0" type="image/png" height="78" width="78"/></pattern><circle class="filled" cx="0" cy="0" r="39" fill="url(#img-fill-277)"/><text text-anchor="middle" pointer-events="none" y="5" font-size="10px" fill="#604A0E" font-family="sans-serif"> Ground</text></g><g class="node" transform="translate(762.8844011600008,-5.420883130866343)"><circle class="outline" cx="0" cy="0" r="40" fill="#D9C8AE" stroke="#c0a378" stroke-width="2px"/><text text-anchor="middle" pointer-events="none" font-family="sans-serif" dy="2.5" font-size="40" fill="#604A0E"/><pattern id="img-fill-333" patternUnits="userSpaceOnUse" x="-39" y="-39" height="156" width="156"><image xmlns:xlink="http://www.w3.org/1999/xlink" xlink:href="https://github.com/DinkleMinded/pokemon-gen6-type-advantage/raw/master/types/Electric.png" x="0" y="0" type="image/png" height="78" width="78"/></pattern><circle class="filled" cx="0" cy="0" r="39" fill="url(#img-fill-333)"/><text text-anchor="middle" pointer-events="none" y="5" font-size="10px" fill="#604A0E" font-family="sans-serif"> Electric</text></g><g class="node" transform="translate(1013.4367927727722,153.5990725433635)"><circle class="outline" cx="0" cy="0" r="40" fill="#D9C8AE" stroke="#c0a378" stroke-width="2px"/><text text-anchor="middle" pointer-events="none" font-family="sans-serif" dy="2.5" font-size="40" fill="#604A0E"/><pattern id="img-fill-312" patternUnits="userSpaceOnUse" x="-39" y="-39" height="156" width="156"><image xmlns:xlink="http://www.w3.org/1999/xlink" xlink:href="https://github.com/DinkleMinded/pokemon-gen6-type-advantage/raw/master/types/Fire.png" x="0" y="0" type="image/png" height="78" width="78"/></pattern><circle class="filled" cx="0" cy="0" r="39" fill="url(#img-fill-312)"/><text text-anchor="middle" pointer-events="none" y="5" font-size="10px" fill="#604A0E" font-family="sans-serif"> Fire</text></g><g class="node" transform="translate(464.25702839734276,870.3204679377395)"><circle class="outline" cx="0" cy="0" r="40" fill="#D9C8AE" stroke="#c0a378" stroke-width="2px"/><text text-anchor="middle" pointer-events="none" font-family="sans-serif" dy="2.5" font-size="40" fill="#604A0E"/><pattern id="img-fill-340" patternUnits="userSpaceOnUse" x="-39" y="-39" height="156" width="156"><image xmlns:xlink="http://www.w3.org/1999/xlink" xlink:href="https://github.com/DinkleMinded/pokemon-gen6-type-advantage/raw/master/types/Psychic.png" x="0" y="0" type="image/png" height="78" width="78"/></pattern><circle class="filled" cx="0" cy="0" r="39" fill="url(#img-fill-340)"/><text text-anchor="middle" pointer-events="none" y="5" font-size="10px" fill="#604A0E" font-family="sans-serif"> Psychic</text></g><g class="node" transform="translate(621.9445216472809,940.5086864441175)"><circle class="outline" cx="0" cy="0" r="40" fill="#D9C8AE" stroke="#c0a378" stroke-width="2px"/><text text-anchor="middle" pointer-events="none" font-family="sans-serif" dy="2.5" font-size="40" fill="#604A0E"/><pattern id="img-fill-298" patternUnits="userSpaceOnUse" x="-39" y="-39" height="156" width="156"><image xmlns:xlink="http://www.w3.org/1999/xlink" xlink:href="https://github.com/DinkleMinded/pokemon-gen6-type-advantage/raw/master/types/Ghost.png" x="0" y="0" type="image/png" height="78" width="78"/></pattern><circle class="filled" cx="0" cy="0" r="39" fill="url(#img-fill-298)"/><text text-anchor="middle" pointer-events="none" y="5" font-size="10px" fill="#604A0E" font-family="sans-serif"> Ghost</text></g><g class="node" transform="translate(621.2382994187801,-220.5614458656339)"><circle class="outline" cx="0" cy="0" r="40" fill="#D9C8AE" stroke="#c0a378" stroke-width="2px"/><text text-anchor="middle" pointer-events="none" font-family="sans-serif" dy="2.5" font-size="40" fill="#604A0E"/><pattern id="img-fill-319" patternUnits="userSpaceOnUse" x="-39" y="-39" height="156" width="156"><image xmlns:xlink="http://www.w3.org/1999/xlink" xlink:href="https://github.com/DinkleMinded/pokemon-gen6-type-advantage/raw/master/types/Water.png" x="0" y="0" type="image/png" height="78" width="78"/></pattern><circle class="filled" cx="0" cy="0" r="39" fill="url(#img-fill-319)"/><text text-anchor="middle" pointer-events="none" y="5" font-size="10px" fill="#604A0E" font-family="sans-serif"> Water</text></g><g class="node" transform="translate(888.3917717538739,679.4735670352027)"><circle class="outline" cx="0" cy="0" r="40" fill="#D9C8AE" stroke="#c0a378" stroke-width="2px"/><text text-anchor="middle" pointer-events="none" font-family="sans-serif" dy="2.5" font-size="40" fill="#604A0E"/><pattern id="img-fill-354" patternUnits="userSpaceOnUse" x="-39" y="-39" height="156" width="156"><image xmlns:xlink="http://www.w3.org/1999/xlink" xlink:href="https://github.com/DinkleMinded/pokemon-gen6-type-advantage/raw/master/types/Dragon.png" x="0" y="0" type="image/png" height="78" width="78"/></pattern><circle class="filled" cx="0" cy="0" r="39" fill="url(#img-fill-354)"/><text text-anchor="middle" pointer-events="none" y="5" font-size="10px" fill="#604A0E" font-family="sans-serif"> Dragon</text></g></g></svg>