<svg xmlns="http://www.w3.org/2000/svg" width="764.0509033203125" height="617.2150268554688" viewBox="-342.19635009765625 -187.55226135253906 764.0509033203125 617.2150268554688"><title>Neo4j Graph Visualization</title><desc>Created using Neo4j (http://www.neo4j.com/)</desc><g class="layer relationships"><g class="relationship" transform="translate(42.41664851394457 305.29350868985796) rotate(539.4654089021035)"><path class="outline" fill="#A5ABB6" stroke="none" d="M 38.50762352901147,-10.835724717245364 L 38.766442574113995,-9.869798890956295 A 231.25569506402778 231.25569506402778 0 0 1 66.5039638538576,-15.508727882571094 L 66.36508789284676,-16.4990376661506 A 232.25569506402778 232.25569506402778 0 0 0 38.50762352901147,-10.835724717245364 Z M 126.84457346023308,-17.028267355222738 L 126.72304897960692,-16.035678920568927 A 231.25569506402778 231.25569506402778 0 0 1 154.55500280460876,-10.883014250743356 L 153.82937506976725,-7.972092680101375 L 161.46809109191364,-9.675036464553491 L 155.5225064510641,-14.76424301159933 L 154.79687871622258,-11.85332144095735 A 232.25569506402778 232.25569506402778 0 0 0 126.84457346023308,-17.028267355222738"/><text text-anchor="middle" pointer-events="none" font-size="8px" fill="#000000" x="96.59190503649616" y="-15.240773081617363" transform="rotate(180 96.59190503649616 -18.240773081617363)" font-family="sans-serif">CANT_TOUCH</text></g><g class="relationship" transform="translate(-22.36016527794932 105.55927741851721) rotate(483.904566357587)"><path class="outline" fill="#A5ABB6" stroke="none" d="M 40 0.5 L 87.69051563463015 0.5 L 87.69051563463015 -0.5 L 40 -0.5 Z M 148.21395313463015 0.5 L 195.9044687692603 0.5 L 195.9044687692603 3.5 L 202.9044687692603 0 L 195.9044687692603 -3.5 L 195.9044687692603 -0.5 L 148.21395313463015 -0.5 Z"/><text text-anchor="middle" pointer-events="none" font-size="8px" fill="#000000" x="117.95223438463015" y="3" transform="rotate(180 117.95223438463015 0)" font-family="sans-serif">CANT_TOUCH</text></g><g class="relationship" transform="translate(186.88174622977476 46.09558561308986) rotate(397.50054885080664)"><path class="outline" fill="#A5ABB6" stroke="none" d="M 40 0.5 L 86.59718705003432 0.5 L 86.59718705003432 -0.5 L 40 -0.5 Z M 147.12062455003434 0.5 L 193.71781160006864 0.5 L 193.71781160006864 3.5 L 200.71781160006864 0 L 193.71781160006864 -3.5 L 193.71781160006864 -0.5 L 147.12062455003434 -0.5 Z"/><text text-anchor="middle" pointer-events="none" font-size="8px" fill="#000000" x="116.85890580003432" y="3" font-family="sans-serif">CANT_TOUCH</text></g><g class="relationship" transform="translate(340.6213554682389 -41.94882466837869) rotate(181.76447681307616)"><path class="outline" fill="#A5ABB6" stroke="none" d="M 40 0.5 L 143.60445281406732 0.5 L 143.60445281406732 -0.5 L 40 -0.5 Z M 204.12789031406732 0.5 L 307.73234312813463 0.5 L 307.73234312813463 3.5 L 314.73234312813463 0 L 307.73234312813463 -3.5 L 307.73234312813463 -0.5 L 204.12789031406732 -0.5 Z"/><text text-anchor="middle" pointer-events="none" font-size="8px" fill="#000000" x="173.86617156406732" y="3" transform="rotate(180 173.86617156406732 0)" font-family="sans-serif">CANT_TOUCH</text></g><g class="relationship" transform="translate(-157.85501245605417 307.1621725769414) rotate(359.4654089021035)"><path class="outline" fill="#A5ABB6" stroke="none" d="M 38.50762352901147,-10.835724717245364 L 38.766442574113995,-9.869798890956295 A 231.25569506402778 231.25569506402778 0 0 1 66.5039638538576,-15.508727882571094 L 66.36508789284676,-16.4990376661506 A 232.25569506402778 232.25569506402778 0 0 0 38.50762352901147,-10.835724717245364 Z M 126.84457346023308,-17.028267355222738 L 126.72304897960692,-16.035678920568927 A 231.25569506402778 231.25569506402778 0 0 1 154.55500280460876,-10.883014250743356 L 153.82937506976725,-7.972092680101375 L 161.46809109191364,-9.675036464553491 L 155.5225064510641,-14.76424301159933 L 154.79687871622258,-11.85332144095735 A 232.25569506402778 232.25569506402778 0 0 0 126.84457346023308,-17.028267355222738"/><text text-anchor="middle" pointer-events="none" font-size="8px" fill="#000000" x="96.59190503649616" y="-15.240773081617363" font-family="sans-serif">CANT_TOUCH</text></g><g class="relationship" transform="translate(172.34066255486937 -143.55226470268786) rotate(391.12247089633854)"><path class="outline" fill="#A5ABB6" stroke="none" d="M 38.50762352901147,10.835724717245364 L 38.766442574113995,9.869798890956295 A 223.98632596783412 223.98632596783412 0 0 0 64.6590727079199,15.192848818523089 L 64.51585281835477,16.18253971129363 A 224.98632596783412 224.98632596783412 0 0 1 38.50762352901147,10.835724717245364 Z M 124.98814552598937,16.721349946332907 L 124.86258333536584,15.729264195862811 A 223.98632596783412 223.98632596783412 0 0 0 150.84595222061174,10.86843122705258 L 150.12125285680435,7.957278391474006 L 157.7594253975963,9.662658184098445 L 151.81221803902156,14.749968341157345 L 151.08751867521417,11.83881550557877 A 224.98632596783412 224.98632596783412 0 0 1 124.98814552598937,16.721349946332907"/><text text-anchor="middle" pointer-events="none" font-size="8px" fill="#000000" x="94.73826798223924" y="20.993037560249007" font-family="sans-serif">CANT_TOUCH</text></g><g class="relationship" transform="translate(-197.63805213056094 -16.046589547030806) rotate(478.20544029032277)"><path class="outline" fill="#A5ABB6" stroke="none" d="M 38.50762352901147,-10.835724717245364 L 38.766442574113995,-9.869798890956295 A 255.71147411933856 255.71147411933856 0 0 1 72.72235424352212,-16.544052024505334 L 72.59632513984226,-17.53607856902198 A 256.71147411933856 256.71147411933856 0 0 0 38.50762352901147,-10.835724717245364 Z M 133.09491615245395,-18.035376813399807 L 132.9852776015416,-17.041405290591513 A 255.71147411933856 255.71147411933856 0 0 1 167.04672237595742,-10.928503191689572 L 166.31819878745932,-8.018305023007262 L 173.9586053676325,-9.7136478466411 L 168.01808716062152,-14.80876741659932 L 167.28956357212343,-11.89856924791701 A 256.71147411933856 256.71147411933856 0 0 0 133.09491615245395,-18.035376813399807"/><text text-anchor="middle" pointer-events="none" font-size="8px" fill="#000000" x="102.8349865575912" y="-16.074230868700823" transform="rotate(180 102.8349865575912 -19.074230868700823)" font-family="sans-serif">CANT_TOUCH</text></g><g class="relationship" transform="translate(225.42112541158644 326.3354257504902) rotate(225.10524825116073)"><path class="outline" fill="#A5ABB6" stroke="none" d="M 38.50762352901147,-10.835724717245364 L 38.766442574113995,-9.869798890956295 A 237.62499729739253 237.62499729739253 0 0 1 68.121829189228,-15.782205894013714 L 67.98654675411595,-16.773012970467136 A 238.62499729739253 238.62499729739253 0 0 0 38.50762352901147,-10.835724717245364 Z M 128.4717019098644,-17.294116226001023 L 128.35351066937338,-16.301125374748494 A 237.62499729739253 237.62499729739253 0 0 1 157.80640763699142,-10.895374723128263 L 157.07999302374432,-7.984649416669228 L 164.71916912093704,-9.685528176628173 L 158.77496045465423,-14.776341798406978 L 158.04854584140713,-11.865616491947943 A 238.62499729739253 238.62499729739253 0 0 0 128.4717019098644,-17.294116226001023"/><text text-anchor="middle" pointer-events="none" font-size="8px" fill="#000000" x="98.21685366496672" y="-15.457837409614143" transform="rotate(180 98.21685366496672 -18.457837409614143)" font-family="sans-serif">CANT_TOUCH</text></g><g class="relationship" transform="translate(-157.85501245605417 307.1621725769414) rotate(381.7522364933251)"><path class="outline" fill="#4C8EDA" stroke="none" d="M 11.801650543534434 38.24880448390895 L 22.154412347635265 76.88583753547168 A 22.935935394489817 22.935935394489817 0 1 1 -22.154412347635265 76.88583753547168 L -14.13102194945712 46.94213692051056 L -8.33546699172271 48.49505119112569 L -10.352761804100831 38.63703305156273 L -17.028799428324326 46.165679785203004 L -11.233244470589915 47.71859405581813 L -19.25663486876806 77.66229467077923 A 19.935935394489817 19.935935394489817 0 1 0 19.25663486876806 77.66229467077923 L 8.903873064667229 39.02526161921651 Z"/><text text-anchor="middle" pointer-events="none" font-size="8px" fill="#000000" x="0" y="114.75802982729645" font-family="sans-serif">BEATS</text></g><g class="relationship" transform="translate(-157.85501245605417 307.1621725769414) rotate(262.98288711205373)"><path class="outline" fill="#4C8EDA" stroke="none" d="M 40 1.5 L 142.5056208609083 1.5 L 142.5056208609083 -1.5 L 40 -1.5 Z M 174.1423396109083 1.5 L 276.6479604718166 1.5 L 276.6479604718166 4.5 L 285.6479604718166 0 L 276.6479604718166 -4.5 L 276.6479604718166 -1.5 L 174.1423396109083 -1.5 Z"/><text text-anchor="middle" pointer-events="none" font-size="8px" fill="#000000" x="158.3239802359083" y="3" transform="rotate(180 158.3239802359083 0)" font-family="sans-serif">BEATS</text></g><g class="relationship" transform="translate(-22.36016527794932 105.55927741851721) rotate(526.5649464684269)"><path class="outline" fill="#4C8EDA" stroke="none" d="M 40 1.5 L 121.48020277159185 1.5 L 121.48020277159185 -1.5 L 40 -1.5 Z M 153.11692152159185 1.5 L 234.5971242931837 1.5 L 234.5971242931837 4.5 L 243.5971242931837 0 L 234.5971242931837 -4.5 L 234.5971242931837 -1.5 L 153.11692152159185 -1.5 Z"/><text text-anchor="middle" pointer-events="none" font-size="8px" fill="#000000" x="137.29856214659185" y="3" transform="rotate(180 137.29856214659185 0)" font-family="sans-serif">BEATS</text></g><g class="relationship" transform="translate(-22.36016527794932 105.55927741851721) rotate(372.2749770353653)"><path class="outline" fill="#4C8EDA" stroke="none" d="M 40 1.5 L 184.47081841698272 1.5 L 184.47081841698272 -1.5 L 40 -1.5 Z M 216.10753716698272 1.5 L 360.57835558396545 1.5 L 360.57835558396545 4.5 L 369.57835558396545 0 L 360.57835558396545 -4.5 L 360.57835558396545 -1.5 L 216.10753716698272 -1.5 Z"/><text text-anchor="middle" pointer-events="none" font-size="8px" fill="#000000" x="200.28917779198272" y="3" font-family="sans-serif">BEATS</text></g><g class="relationship" transform="translate(-22.36016527794932 105.55927741851721) rotate(432.0313419516465)"><path class="outline" fill="#4C8EDA" stroke="none" d="M 40 1.5 L 84.66949557330238 1.5 L 84.66949557330238 -1.5 L 40 -1.5 Z M 116.30621432330238 1.5 L 160.97570989660477 1.5 L 160.97570989660477 4.5 L 169.97570989660477 0 L 160.97570989660477 -4.5 L 160.97570989660477 -1.5 L 116.30621432330238 -1.5 Z"/><text text-anchor="middle" pointer-events="none" font-size="8px" fill="#000000" x="100.48785494830238" y="3" font-family="sans-serif">BEATS</text></g><g class="relationship" transform="translate(186.88174622977476 46.09558561308986) rotate(487.68792832504005)"><path class="outline" fill="#4C8EDA" stroke="none" d="M 40 1.5 L 65.64783145875761 1.5 L 65.64783145875761 -1.5 L 40 -1.5 Z M 97.28455020875761 1.5 L 122.93238166751522 1.5 L 122.93238166751522 4.5 L 131.93238166751522 0 L 122.93238166751522 -4.5 L 122.93238166751522 -1.5 L 97.28455020875761 -1.5 Z"/><text text-anchor="middle" pointer-events="none" font-size="8px" fill="#000000" x="81.46619083375761" y="3" transform="rotate(180 81.46619083375761 0)" font-family="sans-serif">BEATS</text></g><g class="relationship" transform="translate(377.8546223803813 192.6371339749495) rotate(182.02762218109388)"><path class="outline" fill="#4C8EDA" stroke="none" d="M 40 1.5 L 127.81714665434177 1.5 L 127.81714665434177 -1.5 L 40 -1.5 Z M 159.45386540434177 1.5 L 247.27101205868354 1.5 L 247.27101205868354 4.5 L 256.27101205868354 0 L 247.27101205868354 -4.5 L 247.27101205868354 -1.5 L 159.45386540434177 -1.5 Z"/><text text-anchor="middle" pointer-events="none" font-size="8px" fill="#000000" x="143.63550602934177" y="3" transform="rotate(180 143.63550602934177 0)" font-family="sans-serif">BEATS</text></g><g class="relationship" transform="translate(340.6213554682389 -41.94882466837869) rotate(440.98129688296467)"><path class="outline" fill="#4C8EDA" stroke="none" d="M 40 1.5 L 98.44283815765385 1.5 L 98.44283815765385 -1.5 L 40 -1.5 Z M 130.07955690765385 1.5 L 188.5223950653077 1.5 L 188.5223950653077 4.5 L 197.5223950653077 0 L 188.5223950653077 -4.5 L 188.5223950653077 -1.5 L 130.07955690765385 -1.5 Z"/><text text-anchor="middle" pointer-events="none" font-size="8px" fill="#000000" x="114.26119753265385" y="3" font-family="sans-serif">BEATS</text></g><g class="relationship" transform="translate(340.6213554682389 -41.94882466837869) rotate(510.20086832380287)"><path class="outline" fill="#4C8EDA" stroke="none" d="M 40 1.5 L 68.26449115291992 1.5 L 68.26449115291992 -1.5 L 40 -1.5 Z M 99.90120990291992 1.5 L 128.16570105583983 1.5 L 128.16570105583983 4.5 L 137.16570105583983 0 L 128.16570105583983 -4.5 L 128.16570105583983 -1.5 L 99.90120990291992 -1.5 Z"/><text text-anchor="middle" pointer-events="none" font-size="8px" fill="#000000" x="84.08285052791992" y="3" transform="rotate(180 84.08285052791992 0)" font-family="sans-serif">BEATS</text></g><g class="relationship" transform="translate(340.6213554682389 -41.94882466837869) rotate(211.12247089633854)"><path class="outline" fill="#4C8EDA" stroke="none" d="M 38.24880448390895,11.801650543534432 L 39.025261619216515,8.903873064667227 A 221.09943342704966 221.09943342704966 0 0 0 78.04993972121633,15.687300134536457 L 77.8029911083475,18.677118922122446 A 224.09943342704966 224.09943342704966 0 0 1 38.24880448390895,11.801650543534432 Z M 109.62404780100417,19.03822251836101 L 109.44501064220863,16.043569667733692 A 221.09943342704966 221.09943342704966 0 0 0 148.6135752552319,10.147475203398692 L 147.9030772418438,7.2328238395180025 L 157.71277835356798,9.473306845174724 L 150.03457128200807,15.976777931160068 L 149.32407326861997,13.062126567279378 A 224.09943342704966 224.09943342704966 0 0 1 109.62404780100417,19.03822251836101"/><text text-anchor="middle" pointer-events="none" font-size="8px" fill="#000000" x="93.7241223897528" y="20.923322234912888" transform="rotate(180 93.7241223897528 17.923322234912888)" font-family="sans-serif">BEATS</text></g><g class="relationship" transform="translate(-13.942788773992959 -52.87141039477268) rotate(453.0412487246)"><path class="outline" fill="#4C8EDA" stroke="none" d="M 40 1.5 L 59.00870893746425 1.5 L 59.00870893746425 -1.5 L 40 -1.5 Z M 90.64542768746425 1.5 L 109.6541366249285 1.5 L 109.6541366249285 4.5 L 118.6541366249285 0 L 109.6541366249285 -4.5 L 109.6541366249285 -1.5 L 90.64542768746425 -1.5 Z"/><text text-anchor="middle" pointer-events="none" font-size="8px" fill="#000000" x="74.82706831246425" y="3" transform="rotate(180 74.82706831246425 0)" font-family="sans-serif">BEATS</text></g><g class="relationship" transform="translate(172.34066255486937 -143.55226470268786) rotate(514.0436608380198)"><path class="outline" fill="#4C8EDA" stroke="none" d="M 40 1.5 L 83.27283423841239 1.5 L 83.27283423841239 -1.5 L 40 -1.5 Z M 114.90955298841239 1.5 L 158.18238722682477 1.5 L 158.18238722682477 4.5 L 167.18238722682477 0 L 158.18238722682477 -4.5 L 158.18238722682477 -1.5 L 114.90955298841239 -1.5 Z"/><text text-anchor="middle" pointer-events="none" font-size="8px" fill="#000000" x="99.09119361341239" y="3" transform="rotate(180 99.09119361341239 0)" font-family="sans-serif">BEATS</text></g><g class="relationship" transform="translate(-197.63805213056094 -16.046589547030806) rotate(369.1801878236628)"><path class="outline" fill="#4C8EDA" stroke="none" d="M 40 1.5 L 174.43605345350585 1.5 L 174.43605345350585 -1.5 L 40 -1.5 Z M 206.07277220350585 1.5 L 340.5088256570117 1.5 L 340.5088256570117 4.5 L 349.5088256570117 0 L 340.5088256570117 -4.5 L 340.5088256570117 -1.5 L 206.07277220350585 -1.5 Z"/><text text-anchor="middle" pointer-events="none" font-size="8px" fill="#000000" x="190.25441282850585" y="3" font-family="sans-serif">BEATS</text></g><g class="relationship" transform="translate(-197.63805213056094 -16.046589547030806) rotate(394.7524870613653)"><path class="outline" fill="#4C8EDA" stroke="none" d="M 40 1.5 L 86.3473854777402 1.5 L 86.3473854777402 -1.5 L 40 -1.5 Z M 117.9841042277402 1.5 L 164.3314897054804 1.5 L 164.3314897054804 4.5 L 173.3314897054804 0 L 164.3314897054804 -4.5 L 164.3314897054804 -1.5 L 117.9841042277402 -1.5 Z"/><text text-anchor="middle" pointer-events="none" font-size="8px" fill="#000000" x="102.1657448527402" y="3" font-family="sans-serif">BEATS</text></g><g class="relationship" transform="translate(-298.19634596727775 171.4510851800869) rotate(404.0390640845466)"><path class="outline" fill="#4C8EDA" stroke="none" d="M 40 1.5 L 77.29463813832447 1.5 L 77.29463813832447 -1.5 L 40 -1.5 Z M 108.93135688832447 1.5 L 146.22599502664895 1.5 L 146.22599502664895 4.5 L 155.22599502664895 0 L 146.22599502664895 -4.5 L 146.22599502664895 -1.5 L 108.93135688832447 -1.5 Z"/><text text-anchor="middle" pointer-events="none" font-size="8px" fill="#000000" x="93.11299751332447" y="3" font-family="sans-serif">BEATS</text></g><g class="relationship" transform="translate(-298.19634596727775 171.4510851800869) rotate(298.20544029032277)"><path class="outline" fill="#4C8EDA" stroke="none" d="M 38.24880448390895,-11.801650543534432 L 39.025261619216515,-8.903873064667227 A 252.96813259709296 252.96813259709296 0 0 1 86.12855047070695,-16.855699801950294 L 85.9107007184864,-19.847779594579066 A 255.96813259709296 255.96813259709296 0 0 0 38.24880448390895,-11.801650543534432 Z M 117.71165653725359,-20.182278150207992 L 117.55679244229195,-17.186277964611918 A 252.96813259709296 252.96813259709296 0 0 1 164.81692370164743,-10.227013460714751 L 164.10159219791583,-7.313544593579031 L 173.91499605492038,-9.537753383087848 L 166.2475867091106,-16.053951194986194 L 165.53225520537902,-13.140482327850474 A 255.96813259709296 255.96813259709296 0 0 0 117.71165653725359,-20.182278150207992"/><text text-anchor="middle" pointer-events="none" font-size="8px" fill="#000000" x="101.82175552868418" y="-16.00947727932612" font-family="sans-serif">BEATS</text></g><g class="relationship" transform="translate(225.42112541158644 326.3354257504902) rotate(315.1052482511607)"><path class="outline" fill="#4C8EDA" stroke="none" d="M 11.801650543534434 38.24880448390895 L 22.154412347635265 76.88583753547168 A 22.935935394489817 22.935935394489817 0 1 1 -22.154412347635265 76.88583753547168 L -14.13102194945712 46.94213692051056 L -8.33546699172271 48.49505119112569 L -10.352761804100831 38.63703305156273 L -17.028799428324326 46.165679785203004 L -11.233244470589915 47.71859405581813 L -19.25663486876806 77.66229467077923 A 19.935935394489817 19.935935394489817 0 1 0 19.25663486876806 77.66229467077923 L 8.903873064667229 39.02526161921651 Z"/><text text-anchor="middle" pointer-events="none" font-size="8px" fill="#000000" x="0" y="114.75802982729645" font-family="sans-serif">BEATS</text></g><g class="relationship" transform="translate(81.76910977873102 182.15468131850324) rotate(216.33745328624263)"><path class="outline" fill="#4C8EDA" stroke="none" d="M 40 1.5 L 44.31476259514737 1.5 L 44.31476259514737 -1.5 L 40 -1.5 Z M 75.95148134514737 1.5 L 80.26624394029474 1.5 L 80.26624394029474 4.5 L 89.26624394029474 0 L 80.26624394029474 -4.5 L 80.26624394029474 -1.5 L 75.95148134514737 -1.5 Z"/><text text-anchor="middle" pointer-events="none" font-size="8px" fill="#000000" x="60.13312197014737" y="3" transform="rotate(180 60.13312197014737 0)" font-family="sans-serif">BEATS</text></g><g class="relationship" transform="translate(81.76910977873102 182.15468131850324) rotate(405.10524825116073)"><path class="outline" fill="#4C8EDA" stroke="none" d="M 38.24880448390895,-11.801650543534432 L 39.025261619216515,-8.903873064667227 A 234.80257489511715 234.80257489511715 0 0 1 81.52008552305715,-16.1921912223319 L 81.28657163174283,-19.18308929190286 A 237.80257489511715 237.80257489511715 0 0 0 38.24880448390895,-11.801650543534432 Z M 113.09842492742547,-19.532259317964105 L 112.93061616725403,-16.536956291555953 A 234.80257489511715 234.80257489511715 0 0 1 155.5751775182674,-10.183136388109956 L 154.86251236497426,-7.269014156754229 L 164.67387678898115,-9.502202043908426 L 157.00050782485366,-16.01138085082141 L 156.28784267156053,-13.097258619465682 A 237.80257489511715 237.80257489511715 0 0 0 113.09842492742547,-19.532259317964105"/><text text-anchor="middle" pointer-events="none" font-size="8px" fill="#000000" x="97.20311579387166" y="-15.390343830754034" font-family="sans-serif">BEATS</text></g><g class="relationship" transform="translate(81.76910977873102 182.15468131850324) rotate(181.61359074371643)"><path class="outline" fill="#4C8EDA" stroke="none" d="M 40 1.5 L 169.73973340886863 1.5 L 169.73973340886863 -1.5 L 40 -1.5 Z M 201.37645215886863 1.5 L 331.11618556773726 1.5 L 331.11618556773726 4.5 L 340.11618556773726 0 L 331.11618556773726 -4.5 L 331.11618556773726 -1.5 L 201.37645215886863 -1.5 Z"/><text text-anchor="middle" pointer-events="none" font-size="8px" fill="#000000" x="185.55809278386863" y="3" transform="rotate(180 185.55809278386863 0)" font-family="sans-serif">BEATS</text></g></g><g class="layer nodes"><g class="node" transform="translate(42.41664851394457,305.29350868985796)"><circle class="outline" cx="0" cy="0" r="40" fill="#D9C8AE" stroke="#c0a378" stroke-width="2px"/><text text-anchor="middle" pointer-events="none" font-family="sans-serif" dy="2.5" font-size="40" fill="#604A0E"/><pattern id="img-fill-249" patternUnits="userSpaceOnUse" x="-39" y="-39" height="156" width="156"><image xmlns:xlink="http://www.w3.org/1999/xlink" xlink:href="https://github.com/DinkleMinded/pokemon-gen6-type-advantage/raw/master/types/Normal.png" x="0" y="0" type="image/png" height="78" width="78"/></pattern><circle class="filled" cx="0" cy="0" r="39" fill="url(#img-fill-249)"/><text text-anchor="middle" pointer-events="none" y="5" font-size="10px" fill="#604A0E" font-family="sans-serif"> Normal</text></g><g class="node" transform="translate(-157.85501245605417,307.1621725769414)"><circle class="outline" cx="0" cy="0" r="40" fill="#D9C8AE" stroke="#c0a378" stroke-width="2px"/><text text-anchor="middle" pointer-events="none" font-family="sans-serif" dy="2.5" font-size="40" fill="#604A0E"/><pattern id="img-fill-298" patternUnits="userSpaceOnUse" x="-39" y="-39" height="156" width="156"><image xmlns:xlink="http://www.w3.org/1999/xlink" xlink:href="https://github.com/DinkleMinded/pokemon-gen6-type-advantage/raw/master/types/Ghost.png" x="0" y="0" type="image/png" height="78" width="78"/></pattern><circle class="filled" cx="0" cy="0" r="39" fill="url(#img-fill-298)"/><text text-anchor="middle" pointer-events="none" y="5" font-size="10px" fill="#604A0E" font-family="sans-serif"> Ghost</text></g><g class="node" transform="translate(-22.36016527794932,105.55927741851721)"><circle class="outline" cx="0" cy="0" r="40" fill="#D9C8AE" stroke="#c0a378" stroke-width="2px"/><text text-anchor="middle" pointer-events="none" font-family="sans-serif" dy="2.5" font-size="40" fill="#604A0E"/><pattern id="img-fill-256" patternUnits="userSpaceOnUse" x="-39" y="-39" height="156" width="156"><image xmlns:xlink="http://www.w3.org/1999/xlink" xlink:href="https://github.com/DinkleMinded/pokemon-gen6-type-advantage/raw/master/types/Fighting.png" x="0" y="0" type="image/png" height="78" width="78"/></pattern><circle class="filled" cx="0" cy="0" r="39" fill="url(#img-fill-256)"/><text text-anchor="middle" pointer-events="none" y="5" font-size="10px" fill="#604A0E" font-family="sans-serif"> Fighting</text></g><g class="node" transform="translate(186.88174622977476,46.09558561308986)"><circle class="outline" cx="0" cy="0" r="40" fill="#D9C8AE" stroke="#c0a378" stroke-width="2px"/><text text-anchor="middle" pointer-events="none" font-family="sans-serif" dy="2.5" font-size="40" fill="#604A0E"/><pattern id="img-fill-270" patternUnits="userSpaceOnUse" x="-39" y="-39" height="156" width="156"><image xmlns:xlink="http://www.w3.org/1999/xlink" xlink:href="https://github.com/DinkleMinded/pokemon-gen6-type-advantage/raw/master/types/Poison.png" x="0" y="0" type="image/png" height="78" width="78"/></pattern><circle class="filled" cx="0" cy="0" r="39" fill="url(#img-fill-270)"/><text text-anchor="middle" pointer-events="none" y="5" font-size="10px" fill="#604A0E" font-family="sans-serif"> Poison</text></g><g class="node" transform="translate(377.8546223803813,192.6371339749495)"><circle class="outline" cx="0" cy="0" r="40" fill="#D9C8AE" stroke="#c0a378" stroke-width="2px"/><text text-anchor="middle" pointer-events="none" font-family="sans-serif" dy="2.5" font-size="40" fill="#604A0E"/><pattern id="img-fill-305" patternUnits="userSpaceOnUse" x="-39" y="-39" height="156" width="156"><image xmlns:xlink="http://www.w3.org/1999/xlink" xlink:href="https://github.com/DinkleMinded/pokemon-gen6-type-advantage/raw/master/types/Steel.png" x="0" y="0" type="image/png" height="78" width="78"/></pattern><circle class="filled" cx="0" cy="0" r="39" fill="url(#img-fill-305)"/><text text-anchor="middle" pointer-events="none" y="5" font-size="10px" fill="#604A0E" font-family="sans-serif"> Steel</text></g><g class="node" transform="translate(340.6213554682389,-41.94882466837869)"><circle class="outline" cx="0" cy="0" r="40" fill="#D9C8AE" stroke="#c0a378" stroke-width="2px"/><text text-anchor="middle" pointer-events="none" font-family="sans-serif" dy="2.5" font-size="40" fill="#604A0E"/><pattern id="img-fill-277" patternUnits="userSpaceOnUse" x="-39" y="-39" height="156" width="156"><image xmlns:xlink="http://www.w3.org/1999/xlink" xlink:href="https://github.com/DinkleMinded/pokemon-gen6-type-advantage/raw/master/types/Ground.png" x="0" y="0" type="image/png" height="78" width="78"/></pattern><circle class="filled" cx="0" cy="0" r="39" fill="url(#img-fill-277)"/><text text-anchor="middle" pointer-events="none" y="5" font-size="10px" fill="#604A0E" font-family="sans-serif"> Ground</text></g><g class="node" transform="translate(-13.942788773992959,-52.87141039477268)"><circle class="outline" cx="0" cy="0" r="40" fill="#D9C8AE" stroke="#c0a378" stroke-width="2px"/><text text-anchor="middle" pointer-events="none" font-family="sans-serif" dy="2.5" font-size="40" fill="#604A0E"/><pattern id="img-fill-263" patternUnits="userSpaceOnUse" x="-39" y="-39" height="156" width="156"><image xmlns:xlink="http://www.w3.org/1999/xlink" xlink:href="https://github.com/DinkleMinded/pokemon-gen6-type-advantage/raw/master/types/Flying.png" x="0" y="0" type="image/png" height="78" width="78"/></pattern><circle class="filled" cx="0" cy="0" r="39" fill="url(#img-fill-263)"/><text text-anchor="middle" pointer-events="none" y="5" font-size="10px" fill="#604A0E" font-family="sans-serif"> Flying</text></g><g class="node" transform="translate(172.34066255486937,-143.55226470268786)"><circle class="outline" cx="0" cy="0" r="40" fill="#D9C8AE" stroke="#c0a378" stroke-width="2px"/><text text-anchor="middle" pointer-events="none" font-family="sans-serif" dy="2.5" font-size="40" fill="#604A0E"/><pattern id="img-fill-333" patternUnits="userSpaceOnUse" x="-39" y="-39" height="156" width="156"><image xmlns:xlink="http://www.w3.org/1999/xlink" xlink:href="https://github.com/DinkleMinded/pokemon-gen6-type-advantage/raw/master/types/Electric.png" x="0" y="0" type="image/png" height="78" width="78"/></pattern><circle class="filled" cx="0" cy="0" r="39" fill="url(#img-fill-333)"/><text text-anchor="middle" pointer-events="none" y="5" font-size="10px" fill="#604A0E" font-family="sans-serif"> Electric</text></g><g class="node" transform="translate(-197.63805213056094,-16.046589547030806)"><circle class="outline" cx="0" cy="0" r="40" fill="#D9C8AE" stroke="#c0a378" stroke-width="2px"/><text text-anchor="middle" pointer-events="none" font-family="sans-serif" dy="2.5" font-size="40" fill="#604A0E"/><pattern id="img-fill-340" patternUnits="userSpaceOnUse" x="-39" y="-39" height="156" width="156"><image xmlns:xlink="http://www.w3.org/1999/xlink" xlink:href="https://github.com/DinkleMinded/pokemon-gen6-type-advantage/raw/master/types/Psychic.png" x="0" y="0" type="image/png" height="78" width="78"/></pattern><circle class="filled" cx="0" cy="0" r="39" fill="url(#img-fill-340)"/><text text-anchor="middle" pointer-events="none" y="5" font-size="10px" fill="#604A0E" font-family="sans-serif"> Psychic</text></g><g class="node" transform="translate(-298.19634596727775,171.4510851800869)"><circle class="outline" cx="0" cy="0" r="40" fill="#D9C8AE" stroke="#c0a378" stroke-width="2px"/><text text-anchor="middle" pointer-events="none" font-family="sans-serif" dy="2.5" font-size="40" fill="#604A0E"/><pattern id="img-fill-361" patternUnits="userSpaceOnUse" x="-39" y="-39" height="156" width="156"><image xmlns:xlink="http://www.w3.org/1999/xlink" xlink:href="https://github.com/DinkleMinded/pokemon-gen6-type-advantage/raw/master/types/Dark.png" x="0" y="0" type="image/png" height="78" width="78"/></pattern><circle class="filled" cx="0" cy="0" r="39" fill="url(#img-fill-361)"/><text text-anchor="middle" pointer-events="none" y="5" font-size="10px" fill="#604A0E" font-family="sans-serif"> Dark</text></g><g class="node" transform="translate(225.42112541158644,326.3354257504902)"><circle class="outline" cx="0" cy="0" r="40" fill="#D9C8AE" stroke="#c0a378" stroke-width="2px"/><text text-anchor="middle" pointer-events="none" font-family="sans-serif" dy="2.5" font-size="40" fill="#604A0E"/><pattern id="img-fill-354" patternUnits="userSpaceOnUse" x="-39" y="-39" height="156" width="156"><image xmlns:xlink="http://www.w3.org/1999/xlink" xlink:href="https://github.com/DinkleMinded/pokemon-gen6-type-advantage/raw/master/types/Dragon.png" x="0" y="0" type="image/png" height="78" width="78"/></pattern><circle class="filled" cx="0" cy="0" r="39" fill="url(#img-fill-354)"/><text text-anchor="middle" pointer-events="none" y="5" font-size="10px" fill="#604A0E" font-family="sans-serif"> Dragon</text></g><g class="node" transform="translate(81.76910977873102,182.15468131850324)"><circle class="outline" cx="0" cy="0" r="40" fill="#D9C8AE" stroke="#c0a378" stroke-width="2px"/><text text-anchor="middle" pointer-events="none" font-family="sans-serif" dy="2.5" font-size="40" fill="#604A0E"/><pattern id="img-fill-368" patternUnits="userSpaceOnUse" x="-39" y="-39" height="156" width="156"><image xmlns:xlink="http://www.w3.org/1999/xlink" xlink:href="https://github.com/DinkleMinded/pokemon-gen6-type-advantage/raw/master/types/Fairy.png" x="0" y="0" type="image/png" height="78" width="78"/></pattern><circle class="filled" cx="0" cy="0" r="39" fill="url(#img-fill-368)"/><text text-anchor="middle" pointer-events="none" y="5" font-size="10px" fill="#604A0E" font-family="sans-serif"> Fairy</text></g></g></svg>