<svg xmlns="http://www.w3.org/2000/svg" width="1008.1298217773438" height="1156.92919921875" viewBox="49.306922912597656 -264.56146240234375 1008.1298217773438 1156.92919921875"><title>Neo4j Graph Visualization</title><desc>Created using Neo4j (http://www.neo4j.com/)</desc><g class="layer relationships"><g class="relationship" transform="translate(601.4401907821128 484.0086780840429) rotate(522.3779131532333)"><path class="outline" fill="#4C8EDA" stroke="none" d="M 40 1.5 L 196.64084878506594 1.5 L 196.64084878506594 -1.5 L 40 -1.5 Z M 228.27756753506594 1.5 L 384.9184163201319 1.5 L 384.9184163201319 4.5 L 393.9184163201319 0 L 384.9184163201319 -4.5 L 384.9184163201319 -1.5 L 228.27756753506594 -1.5 Z"/><text text-anchor="middle" pointer-events="none" font-size="8px" fill="#000000" x="212.45920816006594" y="3" transform="rotate(180 212.45920816006594 0)" font-family="sans-serif">BEATS</text></g><g class="relationship" transform="translate(601.4401907821128 484.0086780840429) rotate(273.23677687068107)"><path class="outline" fill="#4C8EDA" stroke="none" d="M 40 1.5 L 115.29716298160307 1.5 L 115.29716298160307 -1.5 L 40 -1.5 Z M 146.93388173160307 1.5 L 222.23104471320613 1.5 L 222.23104471320613 4.5 L 231.23104471320613 0 L 222.23104471320613 -4.5 L 222.23104471320613 -1.5 L 146.93388173160307 -1.5 Z"/><text text-anchor="middle" pointer-events="none" font-size="8px" fill="#000000" x="131.11552235660307" y="3" font-family="sans-serif">BEATS</text></g><g class="relationship" transform="translate(601.4401907821128 484.0086780840429) rotate(352.2971485416523)"><path class="outline" fill="#4C8EDA" stroke="none" d="M 40 1.5 L 186.1198992073357 1.5 L 186.1198992073357 -1.5 L 40 -1.5 Z M 217.7566179573357 1.5 L 363.8765171646714 1.5 L 363.8765171646714 4.5 L 372.8765171646714 0 L 363.8765171646714 -4.5 L 363.8765171646714 -1.5 L 217.7566179573357 -1.5 Z"/><text text-anchor="middle" pointer-events="none" font-size="8px" fill="#000000" x="201.9382585823357" y="3" font-family="sans-serif">BEATS</text></g><g class="relationship" transform="translate(601.4401907821128 484.0086780840429) rotate(223.2976339437272)"><path class="outline" fill="#4C8EDA" stroke="none" d="M 40 1.5 L 103.00481027820628 1.5 L 103.00481027820628 -1.5 L 40 -1.5 Z M 134.64152902820626 1.5 L 197.64633930641256 1.5 L 197.64633930641256 4.5 L 206.64633930641256 0 L 197.64633930641256 -4.5 L 197.64633930641256 -1.5 L 134.64152902820626 -1.5 Z"/><text text-anchor="middle" pointer-events="none" font-size="8px" fill="#000000" x="118.82316965320628" y="3" transform="rotate(180 118.82316965320628 0)" font-family="sans-serif">BEATS</text></g><g class="relationship" transform="translate(601.4401907821128 484.0086780840429) rotate(401.5747503702283)"><path class="outline" fill="#4C8EDA" stroke="none" d="M 40 1.5 L 41.26628691962576 1.5 L 41.26628691962576 -1.5 L 40 -1.5 Z M 60.60222441962576 1.5 L 61.868511339251526 1.5 L 61.868511339251526 4.5 L 70.86851133925153 0 L 61.868511339251526 -4.5 L 61.868511339251526 -1.5 L 60.60222441962576 -1.5 Z"/><text text-anchor="middle" pointer-events="none" font-size="8px" fill="#000000" x="50.93425566962576" y="3" font-family="sans-serif">B…</text></g><g class="relationship" transform="translate(93.30692181864742 302.1724307559) rotate(379.6898246865607)"><path class="outline" fill="#4C8EDA" stroke="none" d="M 40 1.5 L 249.52596605629333 1.5 L 249.52596605629333 -1.5 L 40 -1.5 Z M 281.1626848062933 1.5 L 490.68865086258666 1.5 L 490.68865086258666 4.5 L 499.68865086258666 0 L 490.68865086258666 -4.5 L 490.68865086258666 -1.5 L 281.1626848062933 -1.5 Z"/><text text-anchor="middle" pointer-events="none" font-size="8px" fill="#000000" x="265.3443254312933" y="3" font-family="sans-serif">BEATS</text></g><g class="relationship" transform="translate(93.30692181864742 302.1724307559) rotate(404.4547908877073)"><path class="outline" fill="#4C8EDA" stroke="none" d="M 40 1.5 L 94.01085601346709 1.5 L 94.01085601346709 -1.5 L 40 -1.5 Z M 125.64757476346709 1.5 L 179.65843077693418 1.5 L 179.65843077693418 4.5 L 188.65843077693418 0 L 179.65843077693418 -4.5 L 179.65843077693418 -1.5 L 125.64757476346709 -1.5 Z"/><text text-anchor="middle" pointer-events="none" font-size="8px" fill="#000000" x="109.82921538846709" y="3" font-family="sans-serif">BEATS</text></g><g class="relationship" transform="translate(93.30692181864742 302.1724307559) rotate(316.3905782638642)"><path class="outline" fill="#4C8EDA" stroke="none" d="M 40 1.5 L 95.29704428395968 1.5 L 95.29704428395968 -1.5 L 40 -1.5 Z M 126.93376303395968 1.5 L 182.23080731791936 1.5 L 182.23080731791936 4.5 L 191.23080731791936 0 L 182.23080731791936 -4.5 L 182.23080731791936 -1.5 L 126.93376303395968 -1.5 Z"/><text text-anchor="middle" pointer-events="none" font-size="8px" fill="#000000" x="111.11540365895968" y="3" font-family="sans-serif">BEATS</text></g><g class="relationship" transform="translate(416.64839474150983 486.76927103685637) rotate(414.9786604845218)"><path class="outline" fill="#4C8EDA" stroke="none" d="M 40 1.5 L 149.37832082381115 1.5 L 149.37832082381115 -1.5 L 40 -1.5 Z M 181.01503957381115 1.5 L 290.3933603976223 1.5 L 290.3933603976223 4.5 L 299.3933603976223 0 L 290.3933603976223 -4.5 L 290.3933603976223 -1.5 L 181.01503957381115 -1.5 Z"/><text text-anchor="middle" pointer-events="none" font-size="8px" fill="#000000" x="165.19668019881115" y="3" font-family="sans-serif">BEATS</text></g><g class="relationship" transform="translate(416.64839474150983 486.76927103685637) rotate(245.62311150656058)"><path class="outline" fill="#4C8EDA" stroke="none" d="M 40 1.5 L 168.56322046163805 1.5 L 168.56322046163805 -1.5 L 40 -1.5 Z M 200.19993921163805 1.5 L 328.7631596732761 1.5 L 328.7631596732761 4.5 L 337.7631596732761 0 L 328.7631596732761 -4.5 L 328.7631596732761 -1.5 L 200.19993921163805 -1.5 Z"/><text text-anchor="middle" pointer-events="none" font-size="8px" fill="#000000" x="184.38157983663805" y="3" transform="rotate(180 184.38157983663805 0)" font-family="sans-serif">BEATS</text></g><g class="relationship" transform="translate(617.75934126124 25.498109742310817) rotate(405.74412950686474)"><path class="outline" fill="#4C8EDA" stroke="none" d="M 40 1.5 L 261.13466978725097 1.5 L 261.13466978725097 -1.5 L 40 -1.5 Z M 292.77138853725097 1.5 L 513.9060583245019 1.5 L 513.9060583245019 4.5 L 522.9060583245019 0 L 513.9060583245019 -4.5 L 513.9060583245019 -1.5 L 292.77138853725097 -1.5 Z"/><text text-anchor="middle" pointer-events="none" font-size="8px" fill="#000000" x="276.95302916225097" y="3" font-family="sans-serif">BEATS</text></g><g class="relationship" transform="translate(617.75934126124 25.498109742310817) rotate(473.5568593662216)"><path class="outline" fill="#4C8EDA" stroke="none" d="M 40 1.5 L 231.28484859942174 1.5 L 231.28484859942174 -1.5 L 40 -1.5 Z M 262.9215673494217 1.5 L 454.20641594884347 1.5 L 454.20641594884347 4.5 L 463.20641594884347 0 L 454.20641594884347 -4.5 L 454.20641594884347 -1.5 L 262.9215673494217 -1.5 Z"/><text text-anchor="middle" pointer-events="none" font-size="8px" fill="#000000" x="247.10320797442174" y="3" transform="rotate(180 247.10320797442174 0)" font-family="sans-serif">BEATS</text></g><g class="relationship" transform="translate(617.75934126124 25.498109742310817) rotate(484.08844105967864)"><path class="outline" fill="#4C8EDA" stroke="none" d="M 40 1.5 L 154.3813999232536 1.5 L 154.3813999232536 -1.5 L 40 -1.5 Z M 186.0181186732536 1.5 L 300.3995185965072 1.5 L 300.3995185965072 4.5 L 309.3995185965072 0 L 300.3995185965072 -4.5 L 300.3995185965072 -1.5 L 186.0181186732536 -1.5 Z"/><text text-anchor="middle" pointer-events="none" font-size="8px" fill="#000000" x="170.1997592982536" y="3" transform="rotate(180 170.1997592982536 0)" font-family="sans-serif">BEATS</text></g><g class="relationship" transform="translate(617.75934126124 25.498109742310817) rotate(200.32382458658827)"><path class="outline" fill="#4C8EDA" stroke="none" d="M 40 1.5 L 141.11350554592764 1.5 L 141.11350554592764 -1.5 L 40 -1.5 Z M 172.75022429592764 1.5 L 273.8637298418553 1.5 L 273.8637298418553 4.5 L 282.8637298418553 0 L 273.8637298418553 -4.5 L 273.8637298418553 -1.5 L 172.75022429592764 -1.5 Z"/><text text-anchor="middle" pointer-events="none" font-size="8px" fill="#000000" x="156.93186492092764" y="3" transform="rotate(180 156.93186492092764 0)" font-family="sans-serif">BEATS</text></g><g class="relationship" transform="translate(617.75934126124 25.498109742310817) rotate(377.9394110690065)"><path class="outline" fill="#4C8EDA" stroke="none" d="M 40 1.5 L 187.63025345111237 1.5 L 187.63025345111237 -1.5 L 40 -1.5 Z M 219.26697220111237 1.5 L 366.89722565222473 1.5 L 366.89722565222473 4.5 L 375.89722565222473 0 L 366.89722565222473 -4.5 L 366.89722565222473 -1.5 L 219.26697220111237 -1.5 Z"/><text text-anchor="middle" pointer-events="none" font-size="8px" fill="#000000" x="203.44861282611237" y="3" font-family="sans-serif">BEATS</text></g><g class="relationship" transform="translate(421.93071909356604 314.8615046895318) rotate(498.28473993527774)"><path class="outline" fill="#4C8EDA" stroke="none" d="M 40 1.5 L 90.47554974855686 1.5 L 90.47554974855686 -1.5 L 40 -1.5 Z M 122.11226849855686 1.5 L 172.58781824711372 1.5 L 172.58781824711372 4.5 L 181.58781824711372 0 L 172.58781824711372 -4.5 L 172.58781824711372 -1.5 L 122.11226849855686 -1.5 Z"/><text text-anchor="middle" pointer-events="none" font-size="8px" fill="#000000" x="106.29390912355686" y="3" transform="rotate(180 106.29390912355686 0)" font-family="sans-serif">BEATS</text></g><g class="relationship" transform="translate(421.93071909356604 314.8615046895318) rotate(344.7500570602832)"><path class="outline" fill="#4C8EDA" stroke="none" d="M 40 1.5 L 286.2289482388037 1.5 L 286.2289482388037 -1.5 L 40 -1.5 Z M 317.8656669888037 1.5 L 564.0946152276074 1.5 L 564.0946152276074 4.5 L 573.0946152276074 0 L 564.0946152276074 -4.5 L 564.0946152276074 -1.5 L 317.8656669888037 -1.5 Z"/><text text-anchor="middle" pointer-events="none" font-size="8px" fill="#000000" x="302.0473076138037" y="3" font-family="sans-serif">BEATS</text></g><g class="relationship" transform="translate(421.93071909356604 314.8615046895318) rotate(182.21125003814643)"><path class="outline" fill="#4C8EDA" stroke="none" d="M 40 1.5 L 144.1159837020166 1.5 L 144.1159837020166 -1.5 L 40 -1.5 Z M 175.7527024520166 1.5 L 279.8686861540332 1.5 L 279.8686861540332 4.5 L 288.8686861540332 0 L 279.8686861540332 -4.5 L 279.8686861540332 -1.5 L 175.7527024520166 -1.5 Z"/><text text-anchor="middle" pointer-events="none" font-size="8px" fill="#000000" x="159.9343430770166" y="3" transform="rotate(180 159.9343430770166 0)" font-family="sans-serif">BEATS</text></g><g class="relationship" transform="translate(421.93071909356604 314.8615046895318) rotate(332.4462697988441)"><path class="outline" fill="#4C8EDA" stroke="none" d="M 40 1.5 L 89.55575470957604 1.5 L 89.55575470957604 -1.5 L 40 -1.5 Z M 121.19247345957604 1.5 L 170.74822816915207 1.5 L 170.74822816915207 4.5 L 179.74822816915207 0 L 170.74822816915207 -4.5 L 170.74822816915207 -1.5 L 121.19247345957604 -1.5 Z"/><text text-anchor="middle" pointer-events="none" font-size="8px" fill="#000000" x="105.37411408457604" y="3" font-family="sans-serif">BEATS</text></g><g class="relationship" transform="translate(256.5240592539535 462.31250697916903) rotate(474.1540760864465)"><path class="outline" fill="#4C8EDA" stroke="none" d="M 40 1.5 L 63.55458534947651 1.5 L 63.55458534947651 -1.5 L 40 -1.5 Z M 95.19130409947651 1.5 L 118.74588944895302 1.5 L 118.74588944895302 4.5 L 127.74588944895302 0 L 118.74588944895302 -4.5 L 118.74588944895302 -1.5 L 95.19130409947651 -1.5 Z"/><text text-anchor="middle" pointer-events="none" font-size="8px" fill="#000000" x="79.37294472447651" y="3" transform="rotate(180 79.37294472447651 0)" font-family="sans-serif">BEATS</text></g><g class="relationship" transform="translate(256.5240592539535 462.31250697916903) rotate(270.75417797609197)"><path class="outline" fill="#4C8EDA" stroke="none" d="M 40 1.5 L 139.50993326995123 1.5 L 139.50993326995123 -1.5 L 40 -1.5 Z M 171.14665201995123 1.5 L 270.65658528990247 1.5 L 270.65658528990247 4.5 L 279.65658528990247 0 L 270.65658528990247 -4.5 L 270.65658528990247 -1.5 L 171.14665201995123 -1.5 Z"/><text text-anchor="middle" pointer-events="none" font-size="8px" fill="#000000" x="155.32829264495123" y="3" font-family="sans-serif">BEATS</text></g><g class="relationship" transform="translate(256.5240592539535 462.31250697916903) rotate(407.310896682852)"><path class="outline" fill="#4C8EDA" stroke="none" d="M 40 1.5 L 97.26100995952213 1.5 L 97.26100995952213 -1.5 L 40 -1.5 Z M 128.89772870952214 1.5 L 186.15873866904425 1.5 L 186.15873866904425 4.5 L 195.15873866904425 0 L 186.15873866904425 -4.5 L 186.15873866904425 -1.5 L 128.89772870952214 -1.5 Z"/><text text-anchor="middle" pointer-events="none" font-size="8px" fill="#000000" x="113.07936933452213" y="3" font-family="sans-serif">BEATS</text></g><g class="relationship" transform="translate(191.74208270726672 776.2522312749394) rotate(388.22350042007116)"><path class="outline" fill="#4C8EDA" stroke="none" d="M 11.801650543534434 38.24880448390895 L 22.154412347635265 76.88583753547168 A 22.935935394489817 22.935935394489817 0 1 1 -22.154412347635265 76.88583753547168 L -14.13102194945712 46.94213692051056 L -8.33546699172271 48.49505119112569 L -10.352761804100831 38.63703305156273 L -17.028799428324326 46.165679785203004 L -11.233244470589915 47.71859405581813 L -19.25663486876806 77.66229467077923 A 19.935935394489817 19.935935394489817 0 1 0 19.25663486876806 77.66229467077923 L 8.903873064667229 39.02526161921651 Z"/><text text-anchor="middle" pointer-events="none" font-size="8px" fill="#000000" x="0" y="114.75802982729645" font-family="sans-serif">BEATS</text></g><g class="relationship" transform="translate(191.74208270726672 776.2522312749394) rotate(327.8208185300242)"><path class="outline" fill="#4C8EDA" stroke="none" d="M 40 1.5 L 112.14134850761835 1.5 L 112.14134850761835 -1.5 L 40 -1.5 Z M 143.77806725761835 1.5 L 215.9194157652367 1.5 L 215.9194157652367 4.5 L 224.9194157652367 0 L 215.9194157652367 -4.5 L 215.9194157652367 -1.5 L 143.77806725761835 -1.5 Z"/><text text-anchor="middle" pointer-events="none" font-size="8px" fill="#000000" x="127.95970788261835" y="3" font-family="sans-serif">BEATS</text></g><g class="relationship" transform="translate(1010.5911292257831 428.6685660793394) rotate(499.90759201457274)"><path class="outline" fill="#4C8EDA" stroke="none" d="M 40 1.5 L 240.57552925340337 1.5 L 240.57552925340337 -1.5 L 40 -1.5 Z M 272.2122480034034 1.5 L 472.78777725680675 1.5 L 472.78777725680675 4.5 L 481.78777725680675 0 L 472.78777725680675 -4.5 L 472.78777725680675 -1.5 L 272.2122480034034 -1.5 Z"/><text text-anchor="middle" pointer-events="none" font-size="8px" fill="#000000" x="256.3938886284034" y="3" transform="rotate(180 256.3938886284034 0)" font-family="sans-serif">BEATS</text></g><g class="relationship" transform="translate(1010.5911292257831 428.6685660793394) rotate(190.94212743399765)"><path class="outline" fill="#4C8EDA" stroke="none" d="M 40 1.5 L 279.462029276098 1.5 L 279.462029276098 -1.5 L 40 -1.5 Z M 311.098748026098 1.5 L 550.560777302196 1.5 L 550.560777302196 4.5 L 559.560777302196 0 L 550.560777302196 -4.5 L 550.560777302196 -1.5 L 311.098748026098 -1.5 Z"/><text text-anchor="middle" pointer-events="none" font-size="8px" fill="#000000" x="295.280388651098" y="3" transform="rotate(180 295.280388651098 0)" font-family="sans-serif">BEATS</text></g><g class="relationship" transform="translate(1010.5911292257831 428.6685660793394) rotate(208.68197713194138)"><path class="outline" fill="#4C8EDA" stroke="none" d="M 40 1.5 L 204.14183518994474 1.5 L 204.14183518994474 -1.5 L 40 -1.5 Z M 235.77855393994474 1.5 L 399.9203891298895 1.5 L 399.9203891298895 4.5 L 408.9203891298895 0 L 399.9203891298895 -4.5 L 399.9203891298895 -1.5 L 235.77855393994474 -1.5 Z"/><text text-anchor="middle" pointer-events="none" font-size="8px" fill="#000000" x="219.96019456494474" y="3" transform="rotate(180 219.96019456494474 0)" font-family="sans-serif">BEATS</text></g><g class="relationship" transform="translate(1013.4367927727722 153.5990725433635) rotate(517.8114819460984)"><path class="outline" fill="#4C8EDA" stroke="none" d="M 40 1.5 L 388.4055299329534 1.5 L 388.4055299329534 -1.5 L 40 -1.5 Z M 420.0422486829534 1.5 L 768.4477786159068 1.5 L 768.4477786159068 4.5 L 777.4477786159068 0 L 768.4477786159068 -4.5 L 768.4477786159068 -1.5 L 420.0422486829534 -1.5 Z"/><text text-anchor="middle" pointer-events="none" font-size="8px" fill="#000000" x="404.2238893079534" y="3" transform="rotate(180 404.2238893079534 0)" font-family="sans-serif">BEATS</text></g><g class="relationship" transform="translate(1013.4367927727722 153.5990725433635) rotate(180.8308244220591)"><path class="outline" fill="#4C8EDA" stroke="none" d="M 40 1.5 L 356.07383701668294 1.5 L 356.07383701668294 -1.5 L 40 -1.5 Z M 387.71055576668294 1.5 L 703.7843927833659 1.5 L 703.7843927833659 4.5 L 712.7843927833659 0 L 703.7843927833659 -4.5 L 703.7843927833659 -1.5 L 387.71055576668294 -1.5 Z"/><text text-anchor="middle" pointer-events="none" font-size="8px" fill="#000000" x="371.89219639168294" y="3" transform="rotate(180 371.89219639168294 0)" font-family="sans-serif">BEATS</text></g><g class="relationship" transform="translate(1013.4367927727722 153.5990725433635) rotate(450.592718199541)"><path class="outline" fill="#4C8EDA" stroke="none" d="M 40 1.5 L 117.22374697352967 1.5 L 117.22374697352967 -1.5 L 40 -1.5 Z M 148.86046572352967 1.5 L 226.08421269705934 1.5 L 226.08421269705934 4.5 L 235.08421269705934 0 L 226.08421269705934 -4.5 L 226.08421269705934 -1.5 L 148.86046572352967 -1.5 Z"/><text text-anchor="middle" pointer-events="none" font-size="8px" fill="#000000" x="133.04210634852967" y="3" transform="rotate(180 133.04210634852967 0)" font-family="sans-serif">BEATS</text></g><g class="relationship" transform="translate(1013.4367927727722 153.5990725433635) rotate(531.4538504802053)"><path class="outline" fill="#4C8EDA" stroke="none" d="M 40 1.5 L 180.2497785676154 1.5 L 180.2497785676154 -1.5 L 40 -1.5 Z M 211.8864973176154 1.5 L 352.1362758852308 1.5 L 352.1362758852308 4.5 L 361.1362758852308 0 L 352.1362758852308 -4.5 L 352.1362758852308 -1.5 L 211.8864973176154 -1.5 Z"/><text text-anchor="middle" pointer-events="none" font-size="8px" fill="#000000" x="196.0681379426154" y="3" transform="rotate(180 196.0681379426154 0)" font-family="sans-serif">BEATS</text></g><g class="relationship" transform="translate(621.2382994187801 -220.5614458656339) rotate(470.41744313740026)"><path class="outline" fill="#4C8EDA" stroke="none" d="M 40 1.5 L 265.33932368126364 1.5 L 265.33932368126364 -1.5 L 40 -1.5 Z M 296.97604243126364 1.5 L 522.3153661125273 1.5 L 522.3153661125273 4.5 L 531.3153661125273 0 L 522.3153661125273 -4.5 L 522.3153661125273 -1.5 L 296.97604243126364 -1.5 Z"/><text text-anchor="middle" pointer-events="none" font-size="8px" fill="#000000" x="281.15768305626364" y="3" transform="rotate(180 281.15768305626364 0)" font-family="sans-serif">BEATS</text></g><g class="relationship" transform="translate(621.2382994187801 -220.5614458656339) rotate(450.8100329144938)"><path class="outline" fill="#4C8EDA" stroke="none" d="M 40 1.5 L 102.72371478648465 1.5 L 102.72371478648465 -1.5 L 40 -1.5 Z M 134.36043353648466 1.5 L 197.0841483229693 1.5 L 197.0841483229693 4.5 L 206.0841483229693 0 L 197.0841483229693 -4.5 L 197.0841483229693 -1.5 L 134.36043353648466 -1.5 Z"/><text text-anchor="middle" pointer-events="none" font-size="8px" fill="#000000" x="118.54207416148465" y="3" transform="rotate(180 118.54207416148465 0)" font-family="sans-serif">BEATS</text></g><g class="relationship" transform="translate(621.2382994187801 -220.5614458656339) rotate(403.65166452100976)"><path class="outline" fill="#4C8EDA" stroke="none" d="M 40 1.5 L 250.70551029575017 1.5 L 250.70551029575017 -1.5 L 40 -1.5 Z M 282.3422290457502 1.5 L 493.04773934150035 1.5 L 493.04773934150035 4.5 L 502.04773934150035 0 L 493.04773934150035 -4.5 L 493.04773934150035 -1.5 L 282.3422290457502 -1.5 Z"/><text text-anchor="middle" pointer-events="none" font-size="8px" fill="#000000" x="266.5238696707502" y="3" font-family="sans-serif">BEATS</text></g><g class="relationship" transform="translate(260.7315418478486 142.68361340191007) rotate(314.78322350565776)"><path class="outline" fill="#4C8EDA" stroke="none" d="M 40 1.5 L 235.56838087182675 1.5 L 235.56838087182675 -1.5 L 40 -1.5 Z M 267.2050996218268 1.5 L 462.7734804936535 1.5 L 462.7734804936535 4.5 L 471.7734804936535 0 L 462.7734804936535 -4.5 L 462.7734804936535 -1.5 L 267.2050996218268 -1.5 Z"/><text text-anchor="middle" pointer-events="none" font-size="8px" fill="#000000" x="251.38674024682675" y="3" font-family="sans-serif">BEATS</text></g><g class="relationship" transform="translate(260.7315418478486 142.68361340191007) rotate(406.8861727139803)"><path class="outline" fill="#4C8EDA" stroke="none" d="M 40 1.5 L 97.61212967781907 1.5 L 97.61212967781907 -1.5 L 40 -1.5 Z M 129.24884842781907 1.5 L 186.86097810563814 1.5 L 186.86097810563814 4.5 L 195.86097810563814 0 L 186.86097810563814 -4.5 L 186.86097810563814 -1.5 L 129.24884842781907 -1.5 Z"/><text text-anchor="middle" pointer-events="none" font-size="8px" fill="#000000" x="113.43048905281907" y="3" font-family="sans-serif">BEATS</text></g><g class="relationship" transform="translate(260.7315418478486 142.68361340191007) rotate(341.82886311390985)"><path class="outline" fill="#4C8EDA" stroke="none" d="M 40 1.5 L 167.56544236288454 1.5 L 167.56544236288454 -1.5 L 40 -1.5 Z M 199.20216111288454 1.5 L 326.7676034757691 1.5 L 326.7676034757691 4.5 L 335.7676034757691 0 L 326.7676034757691 -4.5 L 326.7676034757691 -1.5 L 199.20216111288454 -1.5 Z"/><text text-anchor="middle" pointer-events="none" font-size="8px" fill="#000000" x="183.38380173788454" y="3" font-family="sans-serif">BEATS</text></g><g class="relationship" transform="translate(314.99562476996346 -86.64073287604526) rotate(336.3801168620365)"><path class="outline" fill="#4C8EDA" stroke="none" d="M 40 1.5 L 146.80385125520075 1.5 L 146.80385125520075 -1.5 L 40 -1.5 Z M 178.44057000520075 1.5 L 285.2444212604015 1.5 L 285.2444212604015 4.5 L 294.2444212604015 0 L 285.2444212604015 -4.5 L 285.2444212604015 -1.5 L 178.44057000520075 -1.5 Z"/><text text-anchor="middle" pointer-events="none" font-size="8px" fill="#000000" x="162.62221063020075" y="3" font-family="sans-serif">BEATS</text></g><g class="relationship" transform="translate(314.99562476996346 -86.64073287604526) rotate(479.6903914263323)"><path class="outline" fill="#4C8EDA" stroke="none" d="M 40 1.5 L 203.46812213679658 1.5 L 203.46812213679658 -1.5 L 40 -1.5 Z M 235.10484088679658 1.5 L 398.57296302359316 1.5 L 398.57296302359316 4.5 L 407.57296302359316 0 L 398.57296302359316 -4.5 L 398.57296302359316 -1.5 L 235.10484088679658 -1.5 Z"/><text text-anchor="middle" pointer-events="none" font-size="8px" fill="#000000" x="219.28648151179658" y="3" transform="rotate(180 219.28648151179658 0)" font-family="sans-serif">BEATS</text></g><g class="relationship" transform="translate(415.9663612253205 635.1644225441614) rotate(270.2633331777663)"><path class="outline" fill="#4C8EDA" stroke="none" d="M 40 1.5 L 53.88000004182476 1.5 L 53.88000004182476 -1.5 L 40 -1.5 Z M 85.51671879182476 1.5 L 99.39671883364952 1.5 L 99.39671883364952 4.5 L 108.39671883364952 0 L 99.39671883364952 -4.5 L 99.39671883364952 -1.5 L 85.51671879182476 -1.5 Z"/><text text-anchor="middle" pointer-events="none" font-size="8px" fill="#000000" x="69.69835941682476" y="3" font-family="sans-serif">BEATS</text></g><g class="relationship" transform="translate(415.9663612253205 635.1644225441614) rotate(320.82097322608485)"><path class="outline" fill="#4C8EDA" stroke="none" d="M 40 1.5 L 99.31503952948101 1.5 L 99.31503952948101 -1.5 L 40 -1.5 Z M 130.951758279481 1.5 L 190.26679780896202 1.5 L 190.26679780896202 4.5 L 199.26679780896202 0 L 190.26679780896202 -4.5 L 190.26679780896202 -1.5 L 130.951758279481 -1.5 Z"/><text text-anchor="middle" pointer-events="none" font-size="8px" fill="#000000" x="115.13339890448101" y="3" font-family="sans-serif">BEATS</text></g><g class="relationship" transform="translate(616.7545384095142 213.2103206795632) rotate(418.08262578379333)"><path class="outline" fill="#4C8EDA" stroke="none" d="M 40 1.5 L 222.15206668459095 1.5 L 222.15206668459095 -1.5 L 40 -1.5 Z M 253.78878543459095 1.5 L 435.9408521191819 1.5 L 435.9408521191819 4.5 L 444.9408521191819 0 L 435.9408521191819 -4.5 L 435.9408521191819 -1.5 L 253.78878543459095 -1.5 Z"/><text text-anchor="middle" pointer-events="none" font-size="8px" fill="#000000" x="237.97042605959095" y="3" font-family="sans-serif">BEATS</text></g><g class="relationship" transform="translate(616.7545384095142 213.2103206795632) rotate(191.20499506411522)"><path class="outline" fill="#4C8EDA" stroke="none" d="M 40 1.5 L 161.15229288052006 1.5 L 161.15229288052006 -1.5 L 40 -1.5 Z M 192.78901163052006 1.5 L 313.94130451104013 1.5 L 313.94130451104013 4.5 L 322.94130451104013 0 L 313.94130451104013 -4.5 L 313.94130451104013 -1.5 L 192.78901163052006 -1.5 Z"/><text text-anchor="middle" pointer-events="none" font-size="8px" fill="#000000" x="176.97065225552006" y="3" transform="rotate(180 176.97065225552006 0)" font-family="sans-serif">BEATS</text></g><g class="relationship" transform="translate(616.7545384095142 213.2103206795632) rotate(270.30669508659037)"><path class="outline" fill="#4C8EDA" stroke="none" d="M 40 1.5 L 73.5390907338251 1.5 L 73.5390907338251 -1.5 L 40 -1.5 Z M 105.1758094838251 1.5 L 138.7149002176502 1.5 L 138.7149002176502 4.5 L 147.7149002176502 0 L 138.7149002176502 -4.5 L 138.7149002176502 -1.5 L 105.1758094838251 -1.5 Z"/><text text-anchor="middle" pointer-events="none" font-size="8px" fill="#000000" x="89.3574501088251" y="3" font-family="sans-serif">BEATS</text></g><g class="relationship" transform="translate(616.7545384095142 213.2103206795632) rotate(530.3545062957822)"><path class="outline" fill="#4C8EDA" stroke="none" d="M 40 1.5 L 245.15841189882224 1.5 L 245.15841189882224 -1.5 L 40 -1.5 Z M 276.79513064882224 1.5 L 481.9535425476445 1.5 L 481.9535425476445 4.5 L 490.9535425476445 0 L 481.9535425476445 -4.5 L 481.9535425476445 -1.5 L 276.79513064882224 -1.5 Z"/><text text-anchor="middle" pointer-events="none" font-size="8px" fill="#000000" x="260.97677127382224" y="3" transform="rotate(180 260.97677127382224 0)" font-family="sans-serif">BEATS</text></g><g class="relationship" transform="translate(873.1407060650695 624.8336473861236) rotate(284.980071805897)"><path class="outline" fill="#4C8EDA" stroke="none" d="M 11.801650543534434 38.24880448390895 L 22.154412347635265 76.88583753547168 A 22.935935394489817 22.935935394489817 0 1 1 -22.154412347635265 76.88583753547168 L -14.13102194945712 46.94213692051056 L -8.33546699172271 48.49505119112569 L -10.352761804100831 38.63703305156273 L -17.028799428324326 46.165679785203004 L -11.233244470589915 47.71859405581813 L -19.25663486876806 77.66229467077923 A 19.935935394489817 19.935935394489817 0 1 0 19.25663486876806 77.66229467077923 L 8.903873064667229 39.02526161921651 Z"/><text text-anchor="middle" pointer-events="none" font-size="8px" fill="#000000" x="0" y="114.75802982729645" font-family="sans-serif">BEATS</text></g><g class="relationship" transform="translate(187.8838140333387 615.3719730800092) rotate(448.6261823101181)"><path class="outline" fill="#4C8EDA" stroke="none" d="M 40 1.5 L 60.14489887686864 1.5 L 60.14489887686864 -1.5 L 40 -1.5 Z M 91.78161762686864 1.5 L 111.92651650373728 1.5 L 111.92651650373728 4.5 L 120.92651650373728 0 L 111.92651650373728 -4.5 L 111.92651650373728 -1.5 L 91.78161762686864 -1.5 Z"/><text text-anchor="middle" pointer-events="none" font-size="8px" fill="#000000" x="75.96325825186864" y="3" font-family="sans-serif">BEATS</text></g><g class="relationship" transform="translate(187.8838140333387 615.3719730800092) rotate(364.9595644032806)"><path class="outline" fill="#4C8EDA" stroke="none" d="M 40 1.5 L 94.15149406835602 1.5 L 94.15149406835602 -1.5 L 40 -1.5 Z M 125.78821281835602 1.5 L 179.93970688671203 1.5 L 179.93970688671203 4.5 L 188.93970688671203 0 L 179.93970688671203 -4.5 L 179.93970688671203 -1.5 L 125.78821281835602 -1.5 Z"/><text text-anchor="middle" pointer-events="none" font-size="8px" fill="#000000" x="109.96985344335602" y="3" font-family="sans-serif">BEATS</text></g><g class="relationship" transform="translate(611.4199605706658 764.7115136457285) rotate(267.9638326319522)"><path class="outline" fill="#4C8EDA" stroke="none" d="M 40 1.5 L 120.12173256583716 1.5 L 120.12173256583716 -1.5 L 40 -1.5 Z M 151.75845131583716 1.5 L 231.88018388167433 1.5 L 231.88018388167433 4.5 L 240.88018388167433 0 L 231.88018388167433 -4.5 L 231.88018388167433 -1.5 L 151.75845131583716 -1.5 Z"/><text text-anchor="middle" pointer-events="none" font-size="8px" fill="#000000" x="135.94009194083716" y="3" transform="rotate(180 135.94009194083716 0)" font-family="sans-serif">BEATS</text></g><g class="relationship" transform="translate(611.4199605706658 764.7115136457285) rotate(331.8775178280007)"><path class="outline" fill="#4C8EDA" stroke="none" d="M 40 1.5 L 128.0591710090564 1.5 L 128.0591710090564 -1.5 L 40 -1.5 Z M 159.6958897590564 1.5 L 247.7550607681128 1.5 L 247.7550607681128 4.5 L 256.7550607681128 0 L 247.7550607681128 -4.5 L 247.7550607681128 -1.5 L 159.6958897590564 -1.5 Z"/><text text-anchor="middle" pointer-events="none" font-size="8px" fill="#000000" x="143.8775303840564" y="3" font-family="sans-serif">BEATS</text></g><g class="relationship" transform="translate(611.4199605706658 764.7115136457285) rotate(199.4227339675919)"><path class="outline" fill="#4C8EDA" stroke="none" d="M 40 1.5 L 204.22849865248853 1.5 L 204.22849865248853 -1.5 L 40 -1.5 Z M 235.86521740248853 1.5 L 400.09371605497705 1.5 L 400.09371605497705 4.5 L 409.09371605497705 0 L 400.09371605497705 -4.5 L 400.09371605497705 -1.5 L 235.86521740248853 -1.5 Z"/><text text-anchor="middle" pointer-events="none" font-size="8px" fill="#000000" x="220.04685802748853" y="3" transform="rotate(180 220.04685802748853 0)" font-family="sans-serif">BEATS</text></g></g><g class="layer nodes"><g class="node" transform="translate(601.4401907821128,484.0086780840429)"><circle class="outline" cx="0" cy="0" r="40" fill="#D9C8AE" stroke="#c0a378" stroke-width="2px"/><text text-anchor="middle" pointer-events="none" font-family="sans-serif" dy="2.5" font-size="40" fill="#604A0E"/><pattern id="img-fill-256" patternUnits="userSpaceOnUse" x="-39" y="-39" height="156" width="156"><image xmlns:xlink="http://www.w3.org/1999/xlink" xlink:href="https://github.com/DinkleMinded/pokemon-gen6-type-advantage/raw/master/types/Fighting.png" x="0" y="0" type="image/png" height="78" width="78"/></pattern><circle class="filled" cx="0" cy="0" r="39" fill="url(#img-fill-256)"/><text text-anchor="middle" pointer-events="none" y="5" font-size="10px" fill="#604A0E" font-family="sans-serif"> Fighting</text></g><g class="node" transform="translate(187.8838140333387,615.3719730800092)"><circle class="outline" cx="0" cy="0" r="40" fill="#D9C8AE" stroke="#c0a378" stroke-width="2px"/><text text-anchor="middle" pointer-events="none" font-family="sans-serif" dy="2.5" font-size="40" fill="#604A0E"/><pattern id="img-fill-361" patternUnits="userSpaceOnUse" x="-39" y="-39" height="156" width="156"><image xmlns:xlink="http://www.w3.org/1999/xlink" xlink:href="https://github.com/DinkleMinded/pokemon-gen6-type-advantage/raw/master/types/Dark.png" x="0" y="0" type="image/png" height="78" width="78"/></pattern><circle class="filled" cx="0" cy="0" r="39" fill="url(#img-fill-361)"/><text text-anchor="middle" pointer-events="none" y="5" font-size="10px" fill="#604A0E" font-family="sans-serif"> Dark</text></g><g class="node" transform="translate(616.7545384095142,213.2103206795632)"><circle class="outline" cx="0" cy="0" r="40" fill="#D9C8AE" stroke="#c0a378" stroke-width="2px"/><text text-anchor="middle" pointer-events="none" font-family="sans-serif" dy="2.5" font-size="40" fill="#604A0E"/><pattern id="img-fill-347" patternUnits="userSpaceOnUse" x="-39" y="-39" height="156" width="156"><image xmlns:xlink="http://www.w3.org/1999/xlink" xlink:href="https://github.com/DinkleMinded/pokemon-gen6-type-advantage/raw/master/types/Ice.png" x="0" y="0" type="image/png" height="78" width="78"/></pattern><circle class="filled" cx="0" cy="0" r="39" fill="url(#img-fill-347)"/><text text-anchor="middle" pointer-events="none" y="5" font-size="10px" fill="#604A0E" font-family="sans-serif"> Ice</text></g><g class="node" transform="translate(1010.5911292257831,428.6685660793394)"><circle class="outline" cx="0" cy="0" r="40" fill="#D9C8AE" stroke="#c0a378" stroke-width="2px"/><text text-anchor="middle" pointer-events="none" font-family="sans-serif" dy="2.5" font-size="40" fill="#604A0E"/><pattern id="img-fill-305" patternUnits="userSpaceOnUse" x="-39" y="-39" height="156" width="156"><image xmlns:xlink="http://www.w3.org/1999/xlink" xlink:href="https://github.com/DinkleMinded/pokemon-gen6-type-advantage/raw/master/types/Steel.png" x="0" y="0" type="image/png" height="78" width="78"/></pattern><circle class="filled" cx="0" cy="0" r="39" fill="url(#img-fill-305)"/><text text-anchor="middle" pointer-events="none" y="5" font-size="10px" fill="#604A0E" font-family="sans-serif"> Steel</text></g><g class="node" transform="translate(421.93071909356604,314.8615046895318)"><circle class="outline" cx="0" cy="0" r="40" fill="#D9C8AE" stroke="#c0a378" stroke-width="2px"/><text text-anchor="middle" pointer-events="none" font-family="sans-serif" dy="2.5" font-size="40" fill="#604A0E"/><pattern id="img-fill-284" patternUnits="userSpaceOnUse" x="-39" y="-39" height="156" width="156"><image xmlns:xlink="http://www.w3.org/1999/xlink" xlink:href="https://github.com/DinkleMinded/pokemon-gen6-type-advantage/raw/master/types/Rock.png" x="0" y="0" type="image/png" height="78" width="78"/></pattern><circle class="filled" cx="0" cy="0" r="39" fill="url(#img-fill-284)"/><text text-anchor="middle" pointer-events="none" y="5" font-size="10px" fill="#604A0E" font-family="sans-serif"> Rock</text></g><g class="node" transform="translate(684.379882280258,557.5806454410074)"><circle class="outline" cx="0" cy="0" r="40" fill="#D9C8AE" stroke="#c0a378" stroke-width="2px"/><text text-anchor="middle" pointer-events="none" font-family="sans-serif" dy="2.5" font-size="40" fill="#604A0E"/><pattern id="img-fill-249" patternUnits="userSpaceOnUse" x="-39" y="-39" height="156" width="156"><image xmlns:xlink="http://www.w3.org/1999/xlink" xlink:href="https://github.com/DinkleMinded/pokemon-gen6-type-advantage/raw/master/types/Normal.png" x="0" y="0" type="image/png" height="78" width="78"/></pattern><circle class="filled" cx="0" cy="0" r="39" fill="url(#img-fill-249)"/><text text-anchor="middle" pointer-events="none" y="5" font-size="10px" fill="#604A0E" font-family="sans-serif"> Normal</text></g><g class="node" transform="translate(93.30692181864742,302.1724307559)"><circle class="outline" cx="0" cy="0" r="40" fill="#D9C8AE" stroke="#c0a378" stroke-width="2px"/><text text-anchor="middle" pointer-events="none" font-family="sans-serif" dy="2.5" font-size="40" fill="#604A0E"/><pattern id="img-fill-263" patternUnits="userSpaceOnUse" x="-39" y="-39" height="156" width="156"><image xmlns:xlink="http://www.w3.org/1999/xlink" xlink:href="https://github.com/DinkleMinded/pokemon-gen6-type-advantage/raw/master/types/Flying.png" x="0" y="0" type="image/png" height="78" width="78"/></pattern><circle class="filled" cx="0" cy="0" r="39" fill="url(#img-fill-263)"/><text text-anchor="middle" pointer-events="none" y="5" font-size="10px" fill="#604A0E" font-family="sans-serif"> Flying</text></g><g class="node" transform="translate(256.5240592539535,462.31250697916903)"><circle class="outline" cx="0" cy="0" r="40" fill="#D9C8AE" stroke="#c0a378" stroke-width="2px"/><text text-anchor="middle" pointer-events="none" font-family="sans-serif" dy="2.5" font-size="40" fill="#604A0E"/><pattern id="img-fill-291" patternUnits="userSpaceOnUse" x="-39" y="-39" height="156" width="156"><image xmlns:xlink="http://www.w3.org/1999/xlink" xlink:href="https://github.com/DinkleMinded/pokemon-gen6-type-advantage/raw/master/types/Bug.png" x="0" y="0" type="image/png" height="78" width="78"/></pattern><circle class="filled" cx="0" cy="0" r="39" fill="url(#img-fill-291)"/><text text-anchor="middle" pointer-events="none" y="5" font-size="10px" fill="#604A0E" font-family="sans-serif"> Bug</text></g><g class="node" transform="translate(260.7315418478486,142.68361340191007)"><circle class="outline" cx="0" cy="0" r="40" fill="#D9C8AE" stroke="#c0a378" stroke-width="2px"/><text text-anchor="middle" pointer-events="none" font-family="sans-serif" dy="2.5" font-size="40" fill="#604A0E"/><pattern id="img-fill-326" patternUnits="userSpaceOnUse" x="-39" y="-39" height="156" width="156"><image xmlns:xlink="http://www.w3.org/1999/xlink" xlink:href="https://github.com/DinkleMinded/pokemon-gen6-type-advantage/raw/master/types/Grass.png" x="0" y="0" type="image/png" height="78" width="78"/></pattern><circle class="filled" cx="0" cy="0" r="39" fill="url(#img-fill-326)"/><text text-anchor="middle" pointer-events="none" y="5" font-size="10px" fill="#604A0E" font-family="sans-serif"> Grass</text></g><g class="node" transform="translate(416.64839474150983,486.76927103685637)"><circle class="outline" cx="0" cy="0" r="40" fill="#D9C8AE" stroke="#c0a378" stroke-width="2px"/><text text-anchor="middle" pointer-events="none" font-family="sans-serif" dy="2.5" font-size="40" fill="#604A0E"/><pattern id="img-fill-270" patternUnits="userSpaceOnUse" x="-39" y="-39" height="156" width="156"><image xmlns:xlink="http://www.w3.org/1999/xlink" xlink:href="https://github.com/DinkleMinded/pokemon-gen6-type-advantage/raw/master/types/Poison.png" x="0" y="0" type="image/png" height="78" width="78"/></pattern><circle class="filled" cx="0" cy="0" r="39" fill="url(#img-fill-270)"/><text text-anchor="middle" pointer-events="none" y="5" font-size="10px" fill="#604A0E" font-family="sans-serif"> Poison</text></g><g class="node" transform="translate(611.4199605706658,764.7115136457285)"><circle class="outline" cx="0" cy="0" r="40" fill="#D9C8AE" stroke="#c0a378" stroke-width="2px"/><text text-anchor="middle" pointer-events="none" font-family="sans-serif" dy="2.5" font-size="40" fill="#604A0E"/><pattern id="img-fill-368" patternUnits="userSpaceOnUse" x="-39" y="-39" height="156" width="156"><image xmlns:xlink="http://www.w3.org/1999/xlink" xlink:href="https://github.com/DinkleMinded/pokemon-gen6-type-advantage/raw/master/types/Fairy.png" x="0" y="0" type="image/png" height="78" width="78"/></pattern><circle class="filled" cx="0" cy="0" r="39" fill="url(#img-fill-368)"/><text text-anchor="middle" pointer-events="none" y="5" font-size="10px" fill="#604A0E" font-family="sans-serif"> Fairy</text></g><g class="node" transform="translate(617.75934126124,25.498109742310817)"><circle class="outline" cx="0" cy="0" r="40" fill="#D9C8AE" stroke="#c0a378" stroke-width="2px"/><text text-anchor="middle" pointer-events="none" font-family="sans-serif" dy="2.5" font-size="40" fill="#604A0E"/><pattern id="img-fill-277" patternUnits="userSpaceOnUse" x="-39" y="-39" height="156" width="156"><image xmlns:xlink="http://www.w3.org/1999/xlink" xlink:href="https://github.com/DinkleMinded/pokemon-gen6-type-advantage/raw/master/types/Ground.png" x="0" y="0" type="image/png" height="78" width="78"/></pattern><circle class="filled" cx="0" cy="0" r="39" fill="url(#img-fill-277)"/><text text-anchor="middle" pointer-events="none" y="5" font-size="10px" fill="#604A0E" font-family="sans-serif"> Ground</text></g><g class="node" transform="translate(314.99562476996346,-86.64073287604526)"><circle class="outline" cx="0" cy="0" r="40" fill="#D9C8AE" stroke="#c0a378" stroke-width="2px"/><text text-anchor="middle" pointer-events="none" font-family="sans-serif" dy="2.5" font-size="40" fill="#604A0E"/><pattern id="img-fill-333" patternUnits="userSpaceOnUse" x="-39" y="-39" height="156" width="156"><image xmlns:xlink="http://www.w3.org/1999/xlink" xlink:href="https://github.com/DinkleMinded/pokemon-gen6-type-advantage/raw/master/types/Electric.png" x="0" y="0" type="image/png" height="78" width="78"/></pattern><circle class="filled" cx="0" cy="0" r="39" fill="url(#img-fill-333)"/><text text-anchor="middle" pointer-events="none" y="5" font-size="10px" fill="#604A0E" font-family="sans-serif"> Electric</text></g><g class="node" transform="translate(1013.4367927727722,153.5990725433635)"><circle class="outline" cx="0" cy="0" r="40" fill="#D9C8AE" stroke="#c0a378" stroke-width="2px"/><text text-anchor="middle" pointer-events="none" font-family="sans-serif" dy="2.5" font-size="40" fill="#604A0E"/><pattern id="img-fill-312" patternUnits="userSpaceOnUse" x="-39" y="-39" height="156" width="156"><image xmlns:xlink="http://www.w3.org/1999/xlink" xlink:href="https://github.com/DinkleMinded/pokemon-gen6-type-advantage/raw/master/types/Fire.png" x="0" y="0" type="image/png" height="78" width="78"/></pattern><circle class="filled" cx="0" cy="0" r="39" fill="url(#img-fill-312)"/><text text-anchor="middle" pointer-events="none" y="5" font-size="10px" fill="#604A0E" font-family="sans-serif"> Fire</text></g><g class="node" transform="translate(415.9663612253205,635.1644225441614)"><circle class="outline" cx="0" cy="0" r="40" fill="#D9C8AE" stroke="#c0a378" stroke-width="2px"/><text text-anchor="middle" pointer-events="none" font-family="sans-serif" dy="2.5" font-size="40" fill="#604A0E"/><pattern id="img-fill-340" patternUnits="userSpaceOnUse" x="-39" y="-39" height="156" width="156"><image xmlns:xlink="http://www.w3.org/1999/xlink" xlink:href="https://github.com/DinkleMinded/pokemon-gen6-type-advantage/raw/master/types/Psychic.png" x="0" y="0" type="image/png" height="78" width="78"/></pattern><circle class="filled" cx="0" cy="0" r="39" fill="url(#img-fill-340)"/><text text-anchor="middle" pointer-events="none" y="5" font-size="10px" fill="#604A0E" font-family="sans-serif"> Psychic</text></g><g class="node" transform="translate(191.74208270726672,776.2522312749394)"><circle class="outline" cx="0" cy="0" r="40" fill="#D9C8AE" stroke="#c0a378" stroke-width="2px"/><text text-anchor="middle" pointer-events="none" font-family="sans-serif" dy="2.5" font-size="40" fill="#604A0E"/><pattern id="img-fill-298" patternUnits="userSpaceOnUse" x="-39" y="-39" height="156" width="156"><image xmlns:xlink="http://www.w3.org/1999/xlink" xlink:href="https://github.com/DinkleMinded/pokemon-gen6-type-advantage/raw/master/types/Ghost.png" x="0" y="0" type="image/png" height="78" width="78"/></pattern><circle class="filled" cx="0" cy="0" r="39" fill="url(#img-fill-298)"/><text text-anchor="middle" pointer-events="none" y="5" font-size="10px" fill="#604A0E" font-family="sans-serif"> Ghost</text></g><g class="node" transform="translate(621.2382994187801,-220.5614458656339)"><circle class="outline" cx="0" cy="0" r="40" fill="#D9C8AE" stroke="#c0a378" stroke-width="2px"/><text text-anchor="middle" pointer-events="none" font-family="sans-serif" dy="2.5" font-size="40" fill="#604A0E"/><pattern id="img-fill-319" patternUnits="userSpaceOnUse" x="-39" y="-39" height="156" width="156"><image xmlns:xlink="http://www.w3.org/1999/xlink" xlink:href="https://github.com/DinkleMinded/pokemon-gen6-type-advantage/raw/master/types/Water.png" x="0" y="0" type="image/png" height="78" width="78"/></pattern><circle class="filled" cx="0" cy="0" r="39" fill="url(#img-fill-319)"/><text text-anchor="middle" pointer-events="none" y="5" font-size="10px" fill="#604A0E" font-family="sans-serif"> Water</text></g><g class="node" transform="translate(873.1407060650695,624.8336473861236)"><circle class="outline" cx="0" cy="0" r="40" fill="#D9C8AE" stroke="#c0a378" stroke-width="2px"/><text text-anchor="middle" pointer-events="none" font-family="sans-serif" dy="2.5" font-size="40" fill="#604A0E"/><pattern id="img-fill-354" patternUnits="userSpaceOnUse" x="-39" y="-39" height="156" width="156"><image xmlns:xlink="http://www.w3.org/1999/xlink" xlink:href="https://github.com/DinkleMinded/pokemon-gen6-type-advantage/raw/master/types/Dragon.png" x="0" y="0" type="image/png" height="78" width="78"/></pattern><circle class="filled" cx="0" cy="0" r="39" fill="url(#img-fill-354)"/><text text-anchor="middle" pointer-events="none" y="5" font-size="10px" fill="#604A0E" font-family="sans-serif"> Dragon</text></g></g></svg>